<svg width="180" height="35" viewBox="0 0 180 35" fill="none" xmlns="http://www.w3.org/2000/svg">
<g clip-path="url(#clip0_24_9)">
<path d="M47.433 8.93598C47.7778 9.21128 48.046 9.53574 48.2376 9.90937C48.4292 10.2633 48.5632 10.6664 48.6399 11.1187C48.8123 12.0036 48.5249 12.7509 47.7778 13.3605C47.5671 13.5374 47.3085 13.7046 47.002 13.8619C46.6955 14.0192 46.3411 14.1864 45.9388 14.3633C45.7089 14.501 45.5557 14.6485 45.4791 14.8058C45.4216 14.9238 45.4982 15.1893 45.7089 15.6022C45.843 15.8185 45.9676 16.0348 46.0825 16.2511C46.2166 16.4478 46.3411 16.6444 46.456 16.8411C46.6285 17.1557 46.7913 17.4507 46.9445 17.726C47.0786 18.0013 47.2223 18.2471 47.3755 18.4634C47.5096 18.6993 47.6629 18.9451 47.8353 19.2008C48.0269 19.4564 48.228 19.7416 48.4387 20.0562C48.7835 20.5085 49.1284 20.9411 49.4732 21.354C49.818 21.767 50.182 22.1603 50.5651 22.5339C51.0632 23.0058 51.6762 23.5368 52.4041 24.1267C53.1512 24.697 53.8791 25.0608 54.5879 25.2181C54.6646 25.2181 54.7603 25.2279 54.8753 25.2476C55.0094 25.2476 55.1626 25.2476 55.335 25.2476C55.7182 25.2476 55.9959 25.2869 56.1683 25.3656C56.2833 25.3656 56.3886 25.4541 56.4844 25.631C56.7718 26.103 56.6089 26.3783 55.9959 26.4569C54.8465 26.5749 53.7163 26.3095 52.6052 25.6605C52.0497 25.3262 51.5325 24.9821 51.0536 24.6282C50.5938 24.2545 50.1724 23.8809 49.7893 23.5073L49.6743 23.3893C49.4444 23.1533 49.2337 22.9272 49.0422 22.7109C48.8314 22.4749 48.6399 22.2488 48.4675 22.0325C48.0269 21.4819 47.6725 21.0001 47.4043 20.5871C47.1936 20.2528 46.9733 19.9382 46.7434 19.6432C46.4944 19.3483 46.2741 19.0435 46.0825 18.7288C45.776 18.2176 45.4695 17.6965 45.163 17.1655C44.8565 16.6346 44.5308 16.0741 44.186 15.4842C43.9753 15.1106 43.6113 14.796 43.0941 14.5403C42.596 14.3044 42.1459 14.265 41.7436 14.4223C41.0923 14.6976 40.7666 15.2777 40.7666 16.1626C40.7666 16.6346 40.757 17.0967 40.7379 17.549C40.7187 18.0013 40.7091 18.4437 40.7091 18.8763V20.1742C40.7091 20.5871 40.508 20.7936 40.1057 20.7936C39.6843 20.7936 39.4735 20.5871 39.4735 20.1742C39.4735 19.4663 39.4831 18.7878 39.5023 18.1389C39.5023 17.5096 39.5214 16.9001 39.5597 16.3101C39.5789 15.8185 39.5693 15.3269 39.531 14.8353C39.4927 14.324 39.4735 13.8226 39.4735 13.331C39.4735 12.8394 39.4831 12.3477 39.5023 11.8561C39.5214 11.3449 39.5406 10.8336 39.5597 10.3223L39.6172 9.17195C39.6364 8.83766 39.6651 8.62135 39.7034 8.52303C39.7609 8.4247 39.8662 8.34605 40.0195 8.28705C40.1919 8.22806 40.4122 8.1789 40.6804 8.13957C40.9294 8.11991 41.1497 8.10024 41.3413 8.08058C41.5329 8.08058 41.6957 8.08058 41.8298 8.08058C41.983 8.06091 42.1554 8.05108 42.347 8.05108C42.5386 8.07075 42.7493 8.09041 42.9792 8.11007C43.1133 8.12974 43.2186 8.13957 43.2952 8.13957C43.391 8.13957 43.4772 8.13957 43.5539 8.13957C43.9178 8.1789 44.2818 8.18873 44.6458 8.16907C45.0097 8.16907 45.3737 8.2084 45.7377 8.28705C46.1208 8.34605 46.456 8.43454 46.7434 8.55252C47.0116 8.67051 47.2415 8.79833 47.433 8.93598ZM41.8298 13.3015C42.2321 13.3211 42.6152 13.331 42.9792 13.331C43.3623 13.331 43.7167 13.3211 44.0423 13.3015C44.2914 13.2621 44.5596 13.2228 44.8469 13.1835C45.1343 13.1442 45.4599 13.0852 45.8239 13.0065C46.571 12.8689 47.0499 12.5247 47.2606 11.9741C47.3947 11.6792 47.3947 11.335 47.2606 10.9417C46.935 10.0962 46.2932 9.60457 45.3354 9.46692C44.799 9.38826 44.2435 9.35876 43.6688 9.37843C43.0941 9.39809 42.5386 9.40792 42.0022 9.40792C41.6957 9.42759 41.4658 9.45708 41.3126 9.49641C41.1593 9.53574 41.0539 9.5849 40.9965 9.6439C40.8815 9.76188 40.8432 10.0667 40.8815 10.5583C40.9007 10.8926 40.8815 11.2269 40.8241 11.5612C40.7666 11.8955 40.7379 12.2199 40.7379 12.5346C40.6995 12.7902 40.7666 12.9967 40.939 13.154C41.0539 13.2523 41.3509 13.3015 41.8298 13.3015ZM64.9324 20.1152C64.9324 20.4691 64.7983 20.6854 64.5301 20.7641C64.2811 20.8821 64.0703 20.8034 63.8979 20.5281C63.8021 20.3905 63.7255 20.2725 63.6681 20.1742C63.6106 20.0562 63.5627 19.9579 63.5244 19.8792C63.3328 19.4663 63.17 19.1123 63.0359 18.8173C62.8826 18.5027 62.739 18.2569 62.6049 18.0799C62.2792 17.6276 61.9248 17.3425 61.5417 17.2245C61.216 17.1262 60.6988 17.1164 59.99 17.195C59.5686 17.2343 59.1663 17.2638 58.7832 17.2835C58.4192 17.3032 58.0648 17.2933 57.72 17.254C56.9537 17.2147 56.3886 17.4703 56.0247 18.0209L55.9959 18.0799L55.9672 18.1094C55.8331 18.3847 55.7277 18.6502 55.6511 18.9058C55.5553 19.1615 55.45 19.4171 55.335 19.6727L54.9327 20.3217C54.7412 20.6166 54.5496 20.7739 54.3581 20.7936C54.2623 20.8329 54.1282 20.7838 53.9558 20.6461C53.8791 20.5478 53.8313 20.4495 53.8121 20.3511C53.7929 20.2332 53.7929 20.1152 53.8121 19.9972C53.8313 19.8792 53.8696 19.7514 53.927 19.6137C53.9653 19.4957 54.0037 19.3876 54.042 19.2893L54.5305 18.2864C54.9902 17.3032 55.4117 16.32 55.7948 15.3367C56.1971 14.3338 56.6281 13.331 57.0878 12.3281C57.1645 12.1511 57.2315 11.984 57.289 11.8266C57.3464 11.6693 57.4039 11.5218 57.4614 11.3842C57.6146 11.0106 57.7583 10.6468 57.8924 10.2928C58.0457 9.9192 58.2085 9.54557 58.3809 9.17195L58.697 8.7295C58.8311 8.47387 58.9652 8.34605 59.0993 8.34605C59.2334 8.30672 59.4058 8.41487 59.6165 8.67051C59.8272 8.94581 60.0379 9.26044 60.2486 9.6144C60.4402 9.98802 60.6126 10.3321 60.7659 10.6468C61.2256 11.6497 61.6566 12.6525 62.0589 13.6554C62.4612 14.6583 62.8922 15.6415 63.352 16.6051C63.4861 16.9001 63.6202 17.195 63.7543 17.49C63.8884 17.8046 64.0416 18.0996 64.214 18.3749C64.2906 18.5715 64.3673 18.7682 64.4439 18.9648C64.5397 19.1418 64.6259 19.3286 64.7025 19.5252C64.76 19.6629 64.8079 19.7809 64.8462 19.8792C64.8845 19.9775 64.9132 20.0562 64.9324 20.1152ZM61.0532 14.4813C60.9191 14.1667 60.785 13.8324 60.6509 13.4784C60.536 13.1442 60.3923 12.8099 60.2199 12.4756C59.8942 11.866 59.5494 11.571 59.1855 11.5907C59.0322 11.5907 58.8981 11.63 58.7832 11.7087C58.6874 11.807 58.5916 11.9053 58.4958 12.0036C58.4192 12.1216 58.3522 12.2494 58.2947 12.3871C58.2181 12.5247 58.1606 12.6525 58.1223 12.7705C57.9882 13.1638 57.8541 13.5768 57.72 14.0094C57.5859 14.442 57.4614 14.8648 57.3464 15.2777C57.2507 15.5727 57.2602 15.789 57.3752 15.9267C57.471 16.0643 57.6817 16.143 58.0073 16.1626C58.2947 16.1823 58.5437 16.202 58.7544 16.2216C58.9843 16.2216 59.1663 16.2118 59.3004 16.1921C59.5877 16.1921 59.9709 16.1528 60.4498 16.0741C60.9287 15.9955 61.216 15.7792 61.3118 15.4252C61.3501 15.2089 61.3214 15.0221 61.2256 14.8648C61.2065 14.8058 61.1777 14.7468 61.1394 14.6878C61.0819 14.6092 61.0532 14.5403 61.0532 14.4813ZM77.8055 18.9058C78.4185 18.5519 78.7729 18.6797 78.8686 19.2893C78.9261 19.5449 78.8016 19.7907 78.4951 20.0267C78.3418 20.1447 78.2077 20.2332 78.0928 20.2922C77.9587 20.3708 77.8438 20.4298 77.748 20.4691C77.4415 20.6068 77.1637 20.7051 76.9147 20.7641C76.6848 20.8231 76.4741 20.8624 76.2825 20.8821C75.9377 20.9214 75.5737 20.9411 75.1906 20.9411C74.8266 20.9411 74.4339 20.9018 74.0125 20.8231C73.1505 20.7051 72.4608 20.4101 71.9436 19.9382C71.4647 19.5056 71.0624 18.9943 70.7368 18.4044C70.4303 17.8144 70.1812 17.2245 69.9897 16.6346L69.9322 16.4871C69.8173 16.1135 69.7789 15.6809 69.8173 15.1893C69.8556 14.7173 69.8651 14.2749 69.846 13.8619C69.846 13.5276 69.8556 13.2425 69.8747 13.0065C69.8747 12.7509 69.9035 12.5346 69.9609 12.3576C70.0567 12.0233 70.2674 11.571 70.5931 11.0007C70.9379 10.3518 71.3402 9.79138 71.7999 9.31943C72.2405 8.84749 72.8344 8.53286 73.5815 8.37554C73.7922 8.35588 74.137 8.27722 74.6159 8.13957C74.75 8.10024 74.9129 8.06091 75.1044 8.02158C75.2768 8.00192 75.478 8.00192 75.7078 8.02158C75.8611 8.02158 76.0527 8.04125 76.2825 8.08058C76.5124 8.11991 76.7806 8.16907 77.0871 8.22806C77.2978 8.30672 77.6235 8.44437 78.0641 8.64101C78.4664 8.81799 78.7058 9.05396 78.7824 9.34893C78.8016 9.46692 78.792 9.5849 78.7537 9.70289C78.6196 9.89953 78.4759 10.0175 78.3227 10.0568C78.2269 10.0962 78.112 10.0962 77.9779 10.0568C77.8438 10.0372 77.6809 9.97819 77.4894 9.87987C77.2212 9.74222 76.9722 9.62423 76.7423 9.52591C76.5316 9.42759 76.3113 9.35876 76.0814 9.31943C75.8515 9.26044 75.6121 9.24078 75.363 9.26044C75.1332 9.2801 74.8745 9.32927 74.5872 9.40792C73.8976 9.62423 73.4187 9.80121 73.1505 9.93886C72.8631 10.0962 72.5183 10.4796 72.116 11.0892C71.8095 11.5612 71.5701 12.0528 71.3977 12.5641C71.2444 13.095 71.1486 13.6259 71.1103 14.1569C71.0912 14.7075 71.139 15.2482 71.254 15.7792C71.3689 16.3298 71.5413 16.8509 71.7712 17.3425V17.372H71.7999C72.3555 18.4339 73.16 19.1025 74.2136 19.3778C74.9607 19.5744 75.545 19.6137 75.9665 19.4957C76.0814 19.4957 76.1963 19.4761 76.3113 19.4368C76.407 19.4171 76.5124 19.3876 76.6273 19.3483C77.0871 19.2696 77.4798 19.1221 77.8055 18.9058ZM83.4087 8.40504C84.06 7.83477 84.424 8.00192 84.5006 8.90648C84.5389 9.08346 84.5581 9.2801 84.5581 9.49641C84.5581 9.69306 84.5485 9.89953 84.5294 10.1158C84.5102 10.3715 84.5006 10.6075 84.5006 10.8238C84.5006 11.0597 84.5006 11.2957 84.5006 11.5317C84.5198 12.2003 84.6922 12.5936 85.0178 12.7115C85.3052 12.8295 85.6213 12.6919 85.9661 12.2986C86.196 12.043 86.445 11.7676 86.7132 11.4727C86.9814 11.1777 87.2687 10.8926 87.5752 10.6173C87.8434 10.401 88.102 10.1748 88.3511 9.93886C88.6001 9.68322 88.8491 9.43742 89.0982 9.20145C89.1365 9.14245 89.2131 9.07363 89.328 8.99497C89.443 8.89665 89.5866 8.77866 89.7591 8.64101C90.0656 8.40504 90.305 8.25756 90.4774 8.19856C90.7648 8.15923 90.9755 8.23789 91.1096 8.43454C91.2245 8.67051 91.1766 8.89665 90.9659 9.11296C90.7935 9.36859 90.6307 9.5849 90.4774 9.76188C90.3433 9.9192 90.2284 10.047 90.1326 10.1453C89.941 10.342 89.6058 10.6271 89.1269 11.0007C88.9162 11.1581 88.7054 11.335 88.4947 11.5317C88.2649 11.7087 88.0541 11.8955 87.8626 12.0921C87.5369 12.4657 87.3549 12.8099 87.3166 13.1245C87.3166 13.2818 87.3358 13.4588 87.3741 13.6554C87.4124 13.8521 87.4986 14.0684 87.6327 14.3044C87.7476 14.5403 87.8721 14.7763 88.0062 15.0123C88.1403 15.2482 88.2649 15.4842 88.3798 15.7202C88.4564 15.8578 88.5139 15.9857 88.5522 16.1036C88.6097 16.202 88.648 16.2905 88.6671 16.3691C88.9736 16.959 89.3472 17.5293 89.7878 18.0799C90.2475 18.6305 90.7456 19.1811 91.282 19.7317C91.5693 20.007 91.5693 20.2922 91.282 20.5871C90.9946 20.9018 90.7073 20.9116 90.4199 20.6166C89.4238 19.6334 88.6767 18.7485 88.1787 17.9619C87.8721 17.4703 87.5944 16.959 87.3453 16.4281C87.0963 15.8972 86.8569 15.3662 86.627 14.8353C86.4163 14.4027 86.1672 14.1765 85.8799 14.1569C85.65 14.1569 85.3627 14.3732 85.0178 14.8058C84.8646 15.0024 84.7592 15.1991 84.7018 15.3957C84.6251 15.5924 84.5772 15.7988 84.5581 16.0152C84.5198 16.3298 84.5389 16.6444 84.6156 16.959C84.673 17.2933 84.6826 17.608 84.6443 17.9029C84.6443 17.9816 84.6443 18.0406 84.6443 18.0799C84.5868 18.4535 84.5485 18.8075 84.5294 19.1418C84.5102 19.4957 84.5102 19.83 84.5294 20.1447C84.5294 20.538 84.3186 20.7543 83.8972 20.7936C83.5141 20.7739 83.3225 20.5675 83.3225 20.1742C83.3225 19.5252 83.3129 18.8862 83.2938 18.2569C83.2746 17.608 83.2459 16.959 83.2076 16.3101C83.1884 15.8382 83.2076 15.3564 83.265 14.8648C83.3417 14.3732 83.38 13.8914 83.38 13.4195C83.38 13.2425 83.38 13.0557 83.38 12.859C83.3991 12.682 83.4087 12.4952 83.4087 12.2986C83.4087 11.6103 83.4087 11.1286 83.4087 10.8533L83.1788 9.6144C83.1022 9.10312 83.1788 8.70001 83.4087 8.40504ZM104.988 18.9648C104.778 19.2598 104.567 19.5154 104.356 19.7317C104.165 19.948 103.954 20.1348 103.724 20.2922C103.494 20.4298 103.245 20.5576 102.977 20.6756C102.709 20.7739 102.412 20.8428 102.086 20.8821C101.914 20.9018 101.732 20.9116 101.54 20.9116C101.368 20.9312 101.176 20.9214 100.966 20.8821C100.678 20.8624 100.391 20.8526 100.103 20.8526C99.8353 20.8526 99.5575 20.8231 99.2702 20.7641C98.638 20.6068 98.1112 20.3806 97.6898 20.0857C97.2684 19.7907 96.9523 19.4073 96.7416 18.9353C96.4542 18.2864 96.617 17.9521 97.23 17.9324C97.3258 17.9324 97.4408 18.0111 97.5749 18.1684C97.7281 18.3257 97.843 18.4437 97.9197 18.5224C98.1879 18.7977 98.3411 18.9451 98.3794 18.9648H98.4082V18.9943C99.0403 19.4466 99.8928 19.6727 100.966 19.6727H100.994C101.435 19.6727 102 19.5842 102.69 19.4073C103.379 19.2303 103.839 18.8763 104.069 18.3454C104.184 18.0111 104.184 17.6571 104.069 17.2835V17.254C103.743 16.5461 103.101 16.0741 102.144 15.8382L99.7299 15.1893C99.3851 15.1106 98.9733 14.9434 98.4944 14.6878C98.2453 14.5502 98.0346 14.4322 97.8622 14.3339C97.6706 14.2159 97.5174 14.1077 97.4024 14.0094C96.8661 13.5964 96.55 13.1933 96.4542 12.8C96.4351 12.7214 96.4255 12.623 96.4255 12.5051C96.4255 12.3871 96.4255 12.2396 96.4255 12.0626C96.4255 11.866 96.4446 11.6792 96.4829 11.5022C96.5021 11.3252 96.5308 11.1384 96.5691 10.9417C96.6458 10.3125 96.8948 9.76188 97.3162 9.28994C97.5078 9.07363 97.7473 8.89665 98.0346 8.759C98.322 8.62135 98.5997 8.49353 98.8679 8.37554C99.2319 8.19856 99.6054 8.11007 99.9886 8.11007C100.391 8.09041 100.793 8.09041 101.195 8.11007C102.479 8.1494 103.475 8.61152 104.184 9.49641C104.529 9.90936 104.653 10.2535 104.557 10.5288L104.442 10.6468C104.232 10.7648 103.983 10.6959 103.695 10.4403C103.619 10.3813 103.542 10.3223 103.465 10.2633C103.408 10.1847 103.341 10.1158 103.264 10.0568C103.207 9.97819 103.121 9.89953 103.006 9.82088C102.91 9.76188 102.795 9.69306 102.661 9.6144L102.632 9.5849H102.575C102.077 9.42759 101.579 9.3391 101.08 9.31943C100.582 9.29977 100.065 9.34893 99.5288 9.46692C98.8775 9.60457 98.3794 9.87987 98.0346 10.2928C97.7089 10.6861 97.5461 11.2072 97.5461 11.8561V11.9151V11.9446C97.6036 12.7705 98.2358 13.3605 99.4426 13.7144L100.017 13.8914L101.454 14.3928C101.684 14.4715 101.914 14.56 102.144 14.6583C102.354 14.7566 102.584 14.855 102.833 14.9533C103.197 15.1303 103.542 15.3072 103.868 15.4842C104.174 15.6415 104.462 15.8087 104.73 15.9857C104.902 16.1036 105.046 16.2511 105.161 16.4281C105.257 16.6051 105.314 16.7919 105.333 16.9885C105.372 17.1852 105.391 17.3917 105.391 17.608C105.372 17.8243 105.343 18.0209 105.304 18.1979C105.285 18.3355 105.247 18.4732 105.19 18.6109C105.132 18.7485 105.065 18.8665 104.988 18.9648ZM119.643 9.14245C119.451 9.35876 119.145 9.44725 118.724 9.40792L117.747 9.34893C117.555 9.34893 117.363 9.3391 117.172 9.31943C116.999 9.29977 116.808 9.28994 116.597 9.28994C116.214 9.28994 115.927 9.37843 115.735 9.55541C115.601 9.73238 115.534 10.0274 115.534 10.4403C115.534 10.6173 115.544 10.7943 115.563 10.9712C115.582 11.1679 115.591 11.3547 115.591 11.5317C115.611 11.984 115.62 12.3772 115.62 12.7115C115.62 13.0262 115.62 13.3015 115.62 13.5374C115.62 14.2257 115.582 14.9139 115.505 15.6022C115.467 15.9168 115.467 16.2315 115.505 16.5461C115.544 16.8804 115.572 17.2048 115.591 17.5195C115.611 17.8538 115.62 18.1487 115.62 18.4044C115.62 18.66 115.62 18.8763 115.62 19.0533C115.62 19.132 115.62 19.2204 115.62 19.3188C115.62 19.4368 115.62 19.5842 115.62 19.7612C115.582 20.1348 115.553 20.361 115.534 20.4396C115.362 20.7346 115.141 20.8428 114.873 20.7641C114.528 20.6854 114.356 20.4298 114.356 19.9972C114.337 19.5842 114.346 19.1713 114.385 18.7583C114.423 18.3454 114.452 17.9423 114.471 17.549C114.509 17.077 114.509 16.5953 114.471 16.1036C114.413 15.6317 114.385 15.1499 114.385 14.6583C114.385 14.2257 114.404 13.7832 114.442 13.331C114.48 12.8787 114.5 12.4264 114.5 11.9741C114.5 11.1089 114.365 10.4895 114.097 10.1158C113.944 9.93886 113.772 9.80121 113.58 9.70289C113.369 9.60457 113.139 9.53574 112.89 9.49641C112.641 9.47675 112.411 9.45708 112.201 9.43742C111.99 9.41775 111.779 9.40792 111.569 9.40792C111.415 9.40792 111.214 9.40792 110.965 9.40792C110.716 9.40792 110.525 9.36859 110.39 9.28994C110.295 9.23094 110.237 9.10313 110.218 8.90648C110.18 8.74917 110.199 8.62135 110.276 8.52303C110.352 8.36571 110.582 8.25756 110.965 8.19856C111.003 8.19856 111.071 8.19856 111.166 8.19856C111.722 8.1789 112.258 8.19856 112.775 8.25756C113.293 8.31655 113.829 8.32638 114.385 8.28705C114.595 8.28705 114.806 8.26739 115.017 8.22806C115.247 8.2084 115.476 8.19856 115.706 8.19856C116.147 8.19856 116.578 8.19856 116.999 8.19856C117.44 8.19856 117.881 8.18873 118.321 8.16907C118.551 8.16907 118.743 8.1789 118.896 8.19856C119.068 8.19856 119.212 8.22806 119.327 8.28705C119.729 8.58202 119.835 8.86715 119.643 9.14245ZM132.344 8.90648C132.612 9.20145 132.832 9.51608 133.005 9.85037C133.158 10.1847 133.321 10.5288 133.493 10.8828C133.685 11.276 133.742 11.6693 133.665 12.0626C133.589 12.4559 133.378 12.8394 133.033 13.213C132.765 13.5079 132.305 13.7439 131.654 13.9209C131.424 13.9799 131.175 14.0487 130.907 14.1274C130.639 14.206 130.447 14.3633 130.332 14.5993C130.256 14.8353 130.275 15.0713 130.39 15.3072C130.524 15.5629 130.629 15.7693 130.706 15.9267C130.782 16.084 130.849 16.2118 130.907 16.3101C130.984 16.4281 131.07 16.5756 131.166 16.7526C131.261 16.9295 131.386 17.1164 131.539 17.313C131.846 17.7456 132.162 18.1487 132.487 18.5224C132.832 18.9157 133.167 19.2794 133.493 19.6137L133.608 19.7317C133.895 20.0267 133.895 20.3118 133.608 20.5871C133.321 20.9018 133.033 20.9116 132.746 20.6166C132.535 20.3806 132.344 20.1742 132.171 19.9972C131.999 19.8202 131.836 19.6531 131.683 19.4957C131.376 19.0828 131.089 18.66 130.821 18.2274C130.61 17.9128 130.409 17.6178 130.217 17.3425C130.007 17.0672 129.815 16.7722 129.643 16.4576C129.106 15.494 128.455 14.855 127.689 14.5403C126.865 14.2257 126.262 14.3437 125.878 14.8943C125.763 15.0909 125.706 15.3072 125.706 15.5432V19.9087V20.1742C125.706 20.5675 125.505 20.7739 125.103 20.7936C124.7 20.7739 124.499 20.5183 124.499 20.0267C124.499 19.7121 124.509 19.3974 124.528 19.0828C124.547 18.7485 124.557 18.3945 124.557 18.0209C124.576 17.7653 124.576 17.4998 124.557 17.2245C124.537 16.9492 124.528 16.6837 124.528 16.4281C124.528 16.1725 124.537 15.9168 124.557 15.6612C124.557 15.4056 124.557 15.1499 124.557 14.8943C124.576 14.3044 124.557 13.6849 124.499 13.036C124.499 12.5837 124.509 12.1314 124.528 11.6792C124.547 11.2269 124.557 10.7648 124.557 10.2928C124.537 10.0568 124.528 9.78155 124.528 9.46692C124.528 9.17195 124.566 8.89665 124.643 8.64101C124.873 8.32638 125.428 8.16907 126.309 8.16907H126.913C127.392 8.16907 127.871 8.18873 128.35 8.22806C128.828 8.26739 129.298 8.27722 129.758 8.25756C130.849 8.19856 131.712 8.41487 132.344 8.90648ZM126.827 13.272C127.325 13.2916 127.765 13.3015 128.148 13.3015C128.532 13.3015 128.848 13.2818 129.097 13.2425C129.346 13.2228 129.623 13.1933 129.93 13.154C130.236 13.1147 130.572 13.0557 130.936 12.977C131.683 12.8197 132.171 12.4657 132.401 11.9151C132.497 11.7185 132.535 11.5022 132.516 11.2662C132.478 11.0106 132.401 10.7844 132.286 10.5878C132.152 10.3911 131.989 10.224 131.798 10.0863C131.606 9.94869 131.405 9.82088 131.194 9.70289C130.964 9.60457 130.744 9.53574 130.533 9.49641C129.978 9.39809 129.432 9.35876 128.896 9.37843C128.359 9.39809 127.813 9.38826 127.258 9.34893C127.162 9.34893 127.057 9.34893 126.942 9.34893C126.846 9.34893 126.75 9.34893 126.654 9.34893C126.367 9.32927 126.156 9.39809 126.022 9.55541C125.907 9.69306 125.859 9.87987 125.878 10.1158C125.898 10.1945 125.907 10.342 125.907 10.5583C125.888 10.7549 125.859 10.9516 125.821 11.1482C125.802 11.3252 125.783 11.512 125.763 11.7087C125.687 12.2199 125.744 12.6034 125.936 12.859C126.108 13.1147 126.405 13.2523 126.827 13.272ZM138.895 19.5842C138.876 18.7583 138.866 17.9423 138.866 17.136C138.886 16.3101 138.895 15.4842 138.895 14.6583V13.9504C138.895 13.5964 138.886 13.2326 138.866 12.859C138.847 12.4854 138.847 12.1216 138.866 11.7676C138.886 11.3547 138.895 10.9516 138.895 10.5583C138.895 10.165 138.895 9.76188 138.895 9.34893C138.895 8.87699 139.01 8.54269 139.24 8.34605C139.412 8.2084 139.709 8.13957 140.131 8.13957C140.361 8.13957 140.562 8.12974 140.734 8.11007C140.887 8.11007 141.022 8.11007 141.136 8.11007C141.654 8.09041 142.171 8.09041 142.688 8.11007C143.186 8.12974 143.694 8.13957 144.211 8.13957C144.479 8.11991 144.757 8.11007 145.044 8.11007C145.313 8.09041 145.581 8.10024 145.849 8.13957L146.855 8.19856C146.97 8.19856 147.065 8.19856 147.142 8.19856C147.238 8.19856 147.314 8.21823 147.372 8.25756C147.64 8.39521 147.774 8.60168 147.774 8.87698C147.755 8.99497 147.707 9.09329 147.63 9.17195C147.554 9.25061 147.468 9.3096 147.372 9.34893C147.276 9.38826 147.171 9.40792 147.056 9.40792C146.96 9.42759 146.864 9.43742 146.768 9.43742C145.983 9.43742 145.198 9.41776 144.412 9.37843C144.336 9.35876 144.24 9.34893 144.125 9.34893C143.991 9.34893 143.857 9.34893 143.723 9.34893H142.573C142.267 9.34893 141.999 9.35876 141.769 9.37843C141.539 9.37843 141.347 9.37843 141.194 9.37843C140.964 9.39809 140.782 9.42759 140.648 9.46692C140.495 9.52591 140.389 9.60457 140.332 9.70289C140.217 9.8602 140.169 10.0667 140.188 10.3223C140.188 10.4206 140.188 10.5091 140.188 10.5878C140.188 10.6664 140.188 10.7451 140.188 10.8238C140.15 10.9811 140.131 11.1482 140.131 11.3252C140.112 11.5022 140.112 11.6988 140.131 11.9151C140.131 12.2888 140.274 12.6034 140.562 12.859C140.792 13.0753 141.213 13.1638 141.826 13.1245C142.113 13.1245 142.391 13.1048 142.659 13.0655C142.928 13.0262 143.196 13.0163 143.464 13.036C143.579 13.036 143.732 13.036 143.924 13.036C144.115 13.0557 144.345 13.0557 144.613 13.036C145.131 13.0163 145.485 13.1048 145.677 13.3015C145.734 13.3998 145.753 13.5571 145.734 13.7734C145.696 14.0094 145.514 14.1569 145.188 14.2159C144.882 14.2749 144.642 14.3044 144.47 14.3044C144.24 14.324 144.01 14.324 143.78 14.3044C143.55 14.3044 143.311 14.3142 143.062 14.3339C142.774 14.3535 142.487 14.3535 142.2 14.3339C141.893 14.3339 141.577 14.3142 141.251 14.2749C141.213 14.2749 141.165 14.2749 141.108 14.2749C141.05 14.2749 141.002 14.2749 140.964 14.2749H140.935C140.801 14.2355 140.658 14.265 140.504 14.3633C140.274 14.501 140.15 14.7566 140.131 15.1303C140.092 15.4842 140.092 15.789 140.131 16.0447C140.131 16.1823 140.14 16.3101 140.16 16.4281C140.16 16.5658 140.15 16.6739 140.131 16.7526C140.112 16.9689 140.092 17.1655 140.073 17.3425C140.054 17.5391 140.035 17.7456 140.016 17.9619C139.978 18.4732 140.035 18.8567 140.188 19.1123C140.418 19.4073 140.811 19.5547 141.366 19.5547C141.788 19.5547 142.228 19.5449 142.688 19.5252C143.129 19.5056 143.569 19.4859 144.01 19.4663C144.412 19.4466 144.824 19.4564 145.246 19.4957C145.686 19.5351 146.117 19.5547 146.539 19.5547C146.692 19.5547 146.893 19.5547 147.142 19.5547C147.41 19.5547 147.621 19.5941 147.774 19.6727C147.889 19.7514 147.956 19.8694 147.975 20.0267C148.129 20.5183 147.927 20.7739 147.372 20.7936C146.51 20.8329 145.657 20.8428 144.814 20.8231C143.991 20.8231 143.157 20.8231 142.315 20.8231C142.276 20.8231 142.228 20.8329 142.171 20.8526C142.133 20.8526 142.094 20.8526 142.056 20.8526C141.749 20.8526 141.491 20.8526 141.28 20.8526C141.05 20.8526 140.868 20.8428 140.734 20.8231C140.638 20.8231 140.533 20.8231 140.418 20.8231C140.284 20.8231 140.14 20.8133 139.987 20.7936C139.853 20.7739 139.748 20.7641 139.671 20.7641C139.575 20.7444 139.508 20.7248 139.47 20.7051C139.087 20.5871 138.895 20.2135 138.895 19.5842ZM163.549 20.1152C163.549 20.4691 163.406 20.6854 163.118 20.7641C162.889 20.8821 162.678 20.8034 162.486 20.5281C162.41 20.3905 162.333 20.2725 162.256 20.1742C162.199 20.0562 162.151 19.9579 162.113 19.8792C161.94 19.4663 161.777 19.1123 161.624 18.8173C161.49 18.5027 161.346 18.2569 161.193 18.0799C160.887 17.6276 160.542 17.3425 160.159 17.2245C159.833 17.1262 159.306 17.1164 158.578 17.195C158.157 17.2343 157.764 17.2638 157.4 17.2835C157.017 17.3032 156.663 17.2933 156.337 17.254C155.571 17.2147 155.006 17.4703 154.642 18.0209L154.613 18.0799L154.584 18.1094C154.45 18.3847 154.345 18.6502 154.268 18.9058C154.172 19.1615 154.067 19.4171 153.952 19.6727L153.55 20.3217C153.358 20.6166 153.167 20.7739 152.975 20.7936C152.879 20.8329 152.745 20.7838 152.573 20.6461C152.496 20.5478 152.448 20.4495 152.429 20.3511C152.41 20.2332 152.41 20.1152 152.429 19.9972C152.448 19.8792 152.477 19.7514 152.515 19.6137C152.573 19.4957 152.621 19.3876 152.659 19.2893L153.119 18.2864C153.579 17.3032 154.01 16.32 154.412 15.3367C154.814 14.3338 155.236 13.331 155.676 12.3281C155.753 12.1511 155.82 11.984 155.877 11.8266C155.935 11.6693 156.002 11.5218 156.078 11.3842C156.213 11.0106 156.356 10.6468 156.509 10.2928C156.644 9.9192 156.806 9.54557 156.998 9.17195L157.285 8.7295C157.439 8.47387 157.582 8.34605 157.716 8.34605C157.831 8.30672 157.994 8.41487 158.205 8.67051C158.435 8.94581 158.655 9.26044 158.866 9.6144C159.057 9.98802 159.23 10.3321 159.383 10.6468C159.843 11.6497 160.264 12.6525 160.647 13.6554C161.05 14.6583 161.481 15.6415 161.94 16.6051C162.094 16.9001 162.237 17.195 162.371 17.49C162.505 17.8046 162.649 18.0996 162.802 18.3749C162.879 18.5715 162.965 18.7682 163.061 18.9648C163.138 19.1418 163.214 19.3286 163.291 19.5252C163.367 19.6629 163.425 19.7809 163.463 19.8792C163.502 19.9775 163.53 20.0562 163.549 20.1152ZM159.642 14.4813C159.507 14.1667 159.383 13.8324 159.268 13.4784C159.134 13.1442 158.99 12.8099 158.837 12.4756C158.511 11.866 158.157 11.571 157.774 11.5907C157.64 11.5907 157.515 11.63 157.4 11.7087C157.285 11.807 157.19 11.9053 157.113 12.0036C157.036 12.1216 156.969 12.2494 156.912 12.3871C156.835 12.5247 156.778 12.6525 156.739 12.7705C156.605 13.1638 156.471 13.5768 156.337 14.0094C156.203 14.442 156.078 14.8648 155.964 15.2777C155.868 15.5727 155.877 15.789 155.992 15.9267C156.069 16.0643 156.27 16.143 156.596 16.1626C156.883 16.1823 157.142 16.202 157.372 16.2216C157.601 16.2216 157.783 16.2118 157.917 16.1921C158.205 16.1921 158.588 16.1528 159.067 16.0741C159.546 15.9955 159.833 15.7792 159.929 15.4252C159.967 15.2089 159.938 15.0221 159.843 14.8648C159.824 14.8058 159.785 14.7468 159.728 14.6878C159.689 14.6092 159.661 14.5403 159.642 14.4813ZM178.693 8.58202C178.808 8.54269 179.018 8.56235 179.325 8.64101C179.631 8.71967 179.813 8.81799 179.871 8.93598C179.871 8.95564 179.88 8.96547 179.899 8.96547C179.938 9.35876 179.957 9.93886 179.957 10.7058V12.2101C179.976 12.623 179.986 13.0163 179.986 13.39C180.005 13.7636 180.005 14.147 179.986 14.5403C179.947 14.9336 179.919 15.3171 179.899 15.6907C179.88 16.0643 179.88 16.4379 179.899 16.8116C179.919 17.1459 179.938 17.4703 179.957 17.7849C179.976 18.0996 179.976 18.4142 179.957 18.7288L179.899 19.6727C179.88 20.125 179.832 20.4003 179.756 20.4986C179.622 20.7149 179.459 20.8231 179.267 20.8231C178.846 20.7838 178.626 20.4691 178.606 19.8792C178.568 19.014 178.568 18.1487 178.606 17.2835C178.664 16.4183 178.654 15.5432 178.578 14.6583L178.52 13.7734C178.501 13.3408 178.329 13.1048 178.003 13.0655C177.869 13.0655 177.754 13.0852 177.658 13.1245C177.562 13.1835 177.486 13.2621 177.428 13.3605C177.352 13.4588 177.294 13.5571 177.256 13.6554C177.218 13.7734 177.179 13.8816 177.141 13.9799C177.045 14.2552 176.949 14.501 176.854 14.7173C176.777 14.9336 176.71 15.1204 176.652 15.2777C176.518 15.553 176.365 15.8382 176.193 16.1331C176.039 16.4084 175.886 16.6837 175.733 16.959C175.599 17.254 175.455 17.5391 175.302 17.8144C175.168 18.0701 175.034 18.3356 174.9 18.6109C174.823 18.7682 174.584 18.837 174.181 18.8173C173.913 18.8173 173.712 18.7387 173.578 18.5814C173.463 18.4634 173.358 18.2864 173.262 18.0504C173.147 17.8341 173.013 17.5588 172.859 17.2245C172.764 16.9885 172.668 16.7919 172.572 16.6346C172.495 16.4576 172.428 16.32 172.371 16.2216C172.294 16.1233 172.208 15.9758 172.112 15.7792C172.036 15.5825 171.921 15.3269 171.768 15.0123L171.25 13.8619C171.174 13.7243 171.116 13.6259 171.078 13.5669C171.02 13.4883 170.992 13.4391 170.992 13.4195C170.781 13.1638 170.551 13.0655 170.302 13.1245C169.976 13.1638 169.814 13.4588 169.814 14.0094C169.814 14.8746 169.823 15.6907 169.842 16.4576C169.861 17.2048 169.881 17.9226 169.9 18.6109C169.9 18.7092 169.9 18.8468 169.9 19.0238C169.9 19.1811 169.89 19.3778 169.871 19.6137C169.852 20.1053 169.804 20.4101 169.727 20.5281C169.593 20.7248 169.392 20.8133 169.124 20.7936C168.779 20.7739 168.607 20.5085 168.607 19.9972C168.607 19.4073 168.597 18.8075 168.578 18.1979C168.559 17.5883 168.54 16.959 168.521 16.3101C168.521 16.0152 168.521 15.7399 168.521 15.4842C168.521 15.2286 168.54 15.0123 168.578 14.8353C168.616 14.501 168.635 14.206 168.635 13.9504C168.635 13.6948 168.635 13.4784 168.635 13.3015C168.616 13.0852 168.597 12.859 168.578 12.623C168.54 12.3674 168.501 12.1019 168.463 11.8266C168.425 11.4334 168.434 10.9614 168.492 10.4108C168.549 9.84054 168.626 9.36859 168.722 8.99497C168.76 8.83766 168.798 8.71967 168.837 8.64101C169.201 8.24772 169.565 8.29689 169.929 8.7885C170.063 8.98514 170.197 9.19162 170.331 9.40792C170.465 9.62423 170.599 9.84054 170.733 10.0568C170.944 10.3715 171.135 10.7156 171.308 11.0892C171.461 11.4628 171.614 11.8168 171.768 12.1511C171.921 12.5051 172.064 12.8197 172.199 13.095C172.313 13.3506 172.428 13.5571 172.543 13.7144L172.601 13.8324C172.754 14.0684 172.879 14.3044 172.974 14.5403C173.089 14.7763 173.195 15.0024 173.29 15.2187C173.578 15.848 173.875 16.1725 174.181 16.1921C174.488 16.1921 174.708 16.0545 174.842 15.7792C174.9 15.6415 174.957 15.5039 175.015 15.3662C175.072 15.2286 175.12 15.1008 175.158 14.9828C175.254 14.7665 175.369 14.5305 175.503 14.2749C175.618 14.0192 175.752 13.7636 175.905 13.5079C176.173 13.036 176.451 12.5641 176.739 12.0921C177.026 11.6202 177.285 11.1187 177.514 10.5878C177.591 10.4305 177.677 10.2535 177.773 10.0568C177.888 9.87987 178.003 9.69306 178.118 9.49641L178.491 8.90648C178.491 8.86715 178.511 8.82782 178.549 8.7885C178.587 8.7295 178.635 8.66068 178.693 8.58202Z" fill="#DAA5DE"/>
<path d="M15.8341 0.140991H17.7619C20.5409 0.36064 22.7753 1.13899 24.7577 2.17667C21.577 5.58296 18.3263 8.91972 15.0079 12.1847C14.0183 10.8689 12.9368 9.81305 10.6014 10.0365C8.31903 10.2547 6.59924 12.3592 6.58024 14.673C6.54924 18.4707 10.7917 20.635 13.9064 18.5183C14.7246 17.9623 15.4755 17.0204 16.2197 16.2564C18.4388 13.9782 20.6755 11.6469 22.8846 9.35768C24.7081 11.0434 26.4529 12.9644 28.2826 14.8427C28.4739 15.0391 29.0509 15.4983 29.0539 15.5776C29.0609 15.7497 27.8637 16.8565 27.7317 16.9913C26.3869 18.3718 25.0224 19.7835 23.6555 21.0627C22.7073 19.0161 19.4677 18.2901 17.3763 19.5925C16.0984 20.3883 15.2812 21.6659 15.2279 23.4374C15.1542 25.8751 16.846 27.9946 19.1941 28.2433C22.4493 28.5886 23.7718 26.2012 25.3633 24.5682C28.0437 21.8167 30.8273 18.9487 33.4607 16.3697C33.5633 21.9779 31.6666 26.0226 28.9985 28.8657C26.3265 31.7129 22.773 33.9908 17.7616 34.3501H15.8338C11.16 33.9289 7.55879 32.0195 4.98243 29.3744C2.40641 26.7298 0.54363 23.0351 0.135345 18.2353V16.2561C0.40598 11.6308 2.52906 7.66789 5.03776 5.11695C7.6951 2.41446 11.2433 0.513573 15.8341 0.140991Z" fill="#DAA5DE"/>
</g>
<defs>
<clipPath id="clip0_24_9">
<rect width="180" height="34.491" fill="white"/>
</clipPath>
</defs>
</svg>
