<svg width="240" height="46" viewBox="0 0 240 46" fill="none" xmlns="http://www.w3.org/2000/svg">
<g clip-path="url(#clip0_24_2)">
<path d="M63.0517 1.23886C63.5115 1.60592 63.8691 2.03854 64.1245 2.53671C64.3799 3.00865 64.5587 3.54614 64.6609 4.14918C64.8907 5.32905 64.5076 6.32537 63.5115 7.13817C63.2305 7.37414 62.8857 7.597 62.477 7.80676C62.0684 8.01651 61.5958 8.23937 61.0595 8.47535C60.753 8.65888 60.5486 8.85553 60.4465 9.06528C60.3698 9.22259 60.472 9.57655 60.753 10.1272C60.9318 10.4156 61.0978 10.704 61.251 10.9924C61.4298 11.2546 61.5958 11.5168 61.7491 11.779C61.979 12.1985 62.1961 12.5918 62.4004 12.9588C62.5792 13.3259 62.7708 13.6536 62.9751 13.942C63.1539 14.2567 63.3582 14.5844 63.5881 14.9253C63.8435 15.2661 64.1117 15.6463 64.3927 16.0658C64.8524 16.6688 65.3122 17.2457 65.7719 17.7963C66.2317 18.3469 66.717 18.8712 67.2278 19.3694C67.8919 19.9987 68.7092 20.7066 69.6798 21.4932C70.676 22.2535 71.6466 22.7386 72.5916 22.9483C72.6938 22.9483 72.8215 22.9614 72.9747 22.9877C73.1535 22.9877 73.3579 22.9877 73.5877 22.9877C74.0986 22.9877 74.4689 23.0401 74.6988 23.145C74.8521 23.145 74.9925 23.263 75.1202 23.4989C75.5034 24.1282 75.2863 24.4953 74.4689 24.6001C72.9364 24.7575 71.4294 24.4035 69.948 23.5383C69.2073 23.0925 68.5177 22.6337 67.8791 22.1618C67.2661 21.6636 66.7042 21.1654 66.1934 20.6673L66.0401 20.5099C65.7336 20.1953 65.4527 19.8938 65.1972 19.6054C64.9163 19.2908 64.6609 18.9892 64.431 18.7008C63.8435 17.9667 63.371 17.3243 63.0134 16.7737C62.7325 16.328 62.4387 15.9085 62.1322 15.5152C61.8002 15.1219 61.5064 14.7155 61.251 14.296C60.8424 13.6143 60.4337 12.9195 60.025 12.2116C59.6163 11.5037 59.1821 10.7564 58.7224 9.96984C58.4414 9.47168 57.9561 9.05217 57.2665 8.71132C56.6024 8.39669 56.0022 8.34425 55.4658 8.554C54.5974 8.92107 54.1632 9.69454 54.1632 10.8744C54.1632 11.5037 54.1504 12.1198 54.1248 12.7229C54.0993 13.3259 54.0865 13.9158 54.0865 14.4926V16.2231C54.0865 16.7737 53.8183 17.049 53.282 17.049C52.72 17.049 52.4391 16.7737 52.4391 16.2231C52.4391 15.2792 52.4519 14.3747 52.4774 13.5094C52.4774 12.6704 52.5029 11.8576 52.554 11.071C52.5796 10.4156 52.5668 9.76009 52.5157 9.10461C52.4646 8.42291 52.4391 7.75432 52.4391 7.09884C52.4391 6.44336 52.4519 5.78788 52.4774 5.1324C52.5029 4.4507 52.5285 3.76901 52.554 3.08731L52.6307 1.55349C52.6562 1.10776 52.6945 0.819349 52.7456 0.688253C52.8222 0.557158 52.9627 0.452281 53.167 0.373624C53.3969 0.294966 53.6906 0.229418 54.0482 0.176979C54.3803 0.15076 54.674 0.124541 54.9294 0.0983218C55.1848 0.0983218 55.4019 0.0983218 55.5807 0.0983218C55.7851 0.0721026 56.0149 0.058994 56.2704 0.058994C56.5258 0.0852132 56.8067 0.111432 57.1132 0.137651C57.292 0.163871 57.4325 0.176979 57.5347 0.176979C57.6624 0.176979 57.7773 0.176979 57.8795 0.176979C58.3648 0.229418 58.8501 0.242528 59.3354 0.216309C59.8207 0.216309 60.306 0.268747 60.7913 0.373624C61.3021 0.452281 61.7491 0.570268 62.1322 0.727583C62.4898 0.884898 62.7963 1.05532 63.0517 1.23886ZM55.5807 7.05951C56.1171 7.08573 56.6279 7.09884 57.1132 7.09884C57.6241 7.09884 58.0966 7.08573 58.5308 7.05951C58.8629 7.00707 59.2204 6.95463 59.6036 6.9022C59.9867 6.84976 60.4209 6.7711 60.9062 6.66622C61.9023 6.48269 62.5409 6.02385 62.8218 5.28972C63.0006 4.89643 63.0006 4.4376 62.8218 3.91321C62.3876 2.78579 61.532 2.13031 60.2549 1.94677C59.5397 1.8419 58.799 1.80257 58.0328 1.82879C57.2665 1.85501 56.5258 1.86812 55.8106 1.86812C55.4019 1.89434 55.0954 1.93366 54.8911 1.9861C54.6868 2.03854 54.5463 2.10409 54.4697 2.18275C54.3164 2.34006 54.2653 2.74646 54.3164 3.40194C54.342 3.84766 54.3164 4.29339 54.2398 4.73912C54.1632 5.18484 54.1248 5.61746 54.1248 6.03696C54.0738 6.37781 54.1632 6.65312 54.393 6.86287C54.5463 6.99396 54.9422 7.05951 55.5807 7.05951ZM86.3842 16.1445C86.3842 16.6164 86.2054 16.9048 85.8478 17.0097C85.5158 17.167 85.2348 17.0621 85.0049 16.6951C84.8772 16.5115 84.7751 16.3542 84.6984 16.2231C84.6218 16.0658 84.558 15.9347 84.5069 15.8298C84.2515 15.2792 84.0343 14.8073 83.8556 14.414C83.6512 13.9945 83.4597 13.6667 83.2809 13.4308C82.8467 12.8277 82.3741 12.4476 81.8633 12.2902C81.4291 12.1591 80.7395 12.146 79.7944 12.2509C79.2325 12.3033 78.6961 12.3427 78.1853 12.3689C77.7 12.3951 77.2274 12.382 76.7677 12.3296C75.746 12.2771 74.9925 12.618 74.5072 13.3521L74.4689 13.4308L74.4306 13.4701C74.2518 13.8372 74.1113 14.1911 74.0092 14.532C73.8815 14.8728 73.741 15.2137 73.5877 15.5545L73.0514 16.4198C72.7959 16.813 72.5405 17.0228 72.2851 17.049C72.1574 17.1015 71.9786 17.0359 71.7487 16.8524C71.6466 16.7213 71.5827 16.5902 71.5572 16.4591C71.5316 16.3018 71.5316 16.1445 71.5572 15.9871C71.5827 15.8298 71.6338 15.6594 71.7104 15.4759C71.7615 15.3186 71.8126 15.1743 71.8637 15.0432L72.515 13.7061C73.128 12.3951 73.6899 11.0842 74.2007 9.7732C74.7371 8.43602 75.3118 7.09884 75.9248 5.76166C76.027 5.52569 76.1164 5.30283 76.193 5.09307C76.2696 4.88332 76.3463 4.68668 76.4229 4.50314C76.6272 4.00498 76.8188 3.51992 76.9976 3.04798C77.2019 2.54981 77.419 2.05165 77.6489 1.55349L78.0703 0.963555C78.2491 0.622706 78.4279 0.452281 78.6067 0.452281C78.7855 0.399843 79.0154 0.544049 79.2963 0.884898C79.5773 1.25197 79.8583 1.67147 80.1392 2.14342C80.3946 2.64158 80.6245 3.10042 80.8288 3.51992C81.4419 4.8571 82.0165 6.19428 82.5529 7.53146C83.0893 8.86864 83.664 10.1796 84.277 11.4643C84.4558 11.8576 84.6346 12.2509 84.8134 12.6442C84.9922 13.0637 85.1965 13.457 85.4264 13.8241C85.5285 14.0863 85.6307 14.3484 85.7329 14.6106C85.8606 14.8466 85.9755 15.0957 86.0777 15.3579C86.1543 15.5414 86.2182 15.6987 86.2693 15.8298C86.3203 15.9609 86.3587 16.0658 86.3842 16.1445ZM81.212 8.63266C81.0332 8.21316 80.8544 7.76743 80.6756 7.29548C80.5223 6.84976 80.3308 6.40403 80.1009 5.95831C79.6667 5.14551 79.2069 4.75222 78.7216 4.77844C78.5173 4.77844 78.3385 4.83088 78.1853 4.93576C78.0576 5.06685 77.9298 5.19795 77.8021 5.32905C77.7 5.48636 77.6106 5.65679 77.534 5.84032C77.4318 6.02385 77.3552 6.19428 77.3041 6.35159C77.1253 6.87598 76.9465 7.42658 76.7677 8.0034C76.5889 8.58022 76.4229 9.14394 76.2696 9.69454C76.1419 10.0878 76.1547 10.3762 76.3079 10.5598C76.4357 10.7433 76.7166 10.8482 77.1508 10.8744C77.5339 10.9006 77.866 10.9268 78.147 10.9531C78.4535 10.9531 78.6961 10.94 78.8749 10.9137C79.258 10.9137 79.7689 10.8613 80.4074 10.7564C81.046 10.6515 81.4291 10.3631 81.5568 9.89118C81.6079 9.60277 81.5696 9.35369 81.4419 9.14394C81.4163 9.06528 81.378 8.98662 81.3269 8.90796C81.2503 8.80309 81.212 8.71132 81.212 8.63266ZM103.548 14.532C104.366 14.06 104.838 14.2305 104.966 15.0432C105.043 15.3841 104.876 15.7118 104.468 16.0265C104.263 16.1838 104.085 16.3018 103.931 16.3804C103.753 16.4853 103.599 16.564 103.472 16.6164C103.063 16.7999 102.693 16.931 102.361 17.0097C102.054 17.0883 101.773 17.1408 101.518 17.167C101.058 17.2194 100.573 17.2457 100.062 17.2457C99.5766 17.2457 99.053 17.1932 98.491 17.0883C97.3417 16.931 96.4221 16.5377 95.7325 15.9085C95.094 15.3317 94.5576 14.65 94.1234 13.8634C93.7147 13.0768 93.3827 12.2902 93.1272 11.5037L93.0506 11.307C92.8974 10.8089 92.8463 10.232 92.8974 9.57655C92.9485 8.94729 92.9612 8.35736 92.9357 7.80676C92.9357 7.36103 92.9485 6.98085 92.974 6.66622C92.974 6.32537 93.0123 6.03696 93.0889 5.80099C93.2166 5.35527 93.4976 4.75223 93.9318 3.99187C94.3916 3.12664 94.9279 2.37939 95.541 1.75013C96.1284 1.12087 96.9202 0.701362 97.9163 0.491609C98.1973 0.46539 98.6571 0.360513 99.2956 0.176979C99.4744 0.124541 99.6915 0.0721027 99.9469 0.0196644C100.177 -0.00655479 100.445 -0.00655479 100.751 0.0196644C100.956 0.0196644 101.211 0.0458835 101.518 0.0983218C101.824 0.15076 102.182 0.216309 102.591 0.294966C102.871 0.399843 103.306 0.583377 103.893 0.845568C104.43 1.08154 104.749 1.39617 104.851 1.78946C104.876 1.94677 104.864 2.10409 104.813 2.2614C104.634 2.5236 104.442 2.68091 104.238 2.73335C104.11 2.78579 103.957 2.78579 103.778 2.73335C103.599 2.70713 103.382 2.62847 103.127 2.49738C102.769 2.31384 102.437 2.15653 102.131 2.02543C101.85 1.89434 101.556 1.80257 101.25 1.75013C100.943 1.67147 100.624 1.64525 100.292 1.67147C99.9852 1.69769 99.6404 1.76324 99.2573 1.86812C98.3378 2.15653 97.6992 2.3925 97.3417 2.57603C96.9585 2.78579 96.4988 3.29706 95.9624 4.10985C95.5537 4.73911 95.2344 5.39459 95.0046 6.07629C94.8002 6.78421 94.6725 7.49213 94.6214 8.20005C94.5959 8.93418 94.6598 9.65521 94.813 10.3631C94.9663 11.0973 95.1961 11.7921 95.5026 12.4476V12.4869H95.541C96.2817 13.9027 97.3544 14.7942 98.7592 15.1612C99.7554 15.4234 100.534 15.4759 101.096 15.3186C101.25 15.3186 101.403 15.2923 101.556 15.2399C101.684 15.2137 101.824 15.1743 101.977 15.1219C102.591 15.017 103.114 14.8204 103.548 14.532ZM111.019 0.530939C111.888 -0.229417 112.373 -0.00655408 112.475 1.19953C112.526 1.4355 112.552 1.69769 112.552 1.9861C112.552 2.24829 112.539 2.5236 112.514 2.81201C112.488 3.15286 112.475 3.46749 112.475 3.7559C112.475 4.07053 112.475 4.38516 112.475 4.69979C112.501 5.59124 112.731 6.11562 113.165 6.27294C113.548 6.43025 113.969 6.24672 114.429 5.72233C114.736 5.38149 115.068 5.01442 115.425 4.62113C115.783 4.22784 116.166 3.84766 116.575 3.4806C116.932 3.19218 117.277 2.89066 117.609 2.57603C117.941 2.23518 118.273 1.90744 118.605 1.59281C118.656 1.51416 118.758 1.42239 118.912 1.31751C119.065 1.18642 119.257 1.0291 119.486 0.845568C119.895 0.530938 120.214 0.334294 120.444 0.255637C120.827 0.203198 121.108 0.308077 121.287 0.570268C121.44 0.884898 121.377 1.18642 121.096 1.47483C120.866 1.81568 120.649 2.10409 120.444 2.34006C120.265 2.54981 120.112 2.72024 119.984 2.85134C119.729 3.11353 119.282 3.49371 118.644 3.99187C118.363 4.20162 118.082 4.43759 117.801 4.69979C117.494 4.93576 117.213 5.18484 116.958 5.44703C116.524 5.9452 116.281 6.40403 116.23 6.82354C116.23 7.03329 116.255 7.26927 116.306 7.53146C116.358 7.79365 116.472 8.08206 116.651 8.39669C116.805 8.71132 116.971 9.02595 117.149 9.34058C117.328 9.65521 117.494 9.96984 117.647 10.2845C117.75 10.468 117.826 10.6384 117.877 10.7957C117.954 10.9268 118.005 11.0448 118.031 11.1497C118.439 11.9363 118.937 12.6966 119.525 13.4308C120.138 14.1649 120.802 14.899 121.517 15.6332C121.9 16.0002 121.9 16.3804 121.517 16.7737C121.134 17.1932 120.751 17.2063 120.368 16.813C119.039 15.5021 118.043 14.3222 117.379 13.2735C116.971 12.618 116.6 11.9363 116.268 11.2284C115.936 10.5204 115.617 9.81252 115.31 9.10461C115.029 8.52779 114.697 8.22626 114.314 8.20005C114.008 8.20005 113.625 8.48846 113.165 9.06528C112.96 9.32747 112.82 9.58966 112.743 9.85185C112.641 10.114 112.577 10.3893 112.552 10.6778C112.501 11.0973 112.526 11.5168 112.628 11.9363C112.705 12.382 112.718 12.8015 112.667 13.1948C112.667 13.2997 112.667 13.3783 112.667 13.4308C112.59 13.9289 112.539 14.4009 112.514 14.8466C112.488 15.3186 112.488 15.7643 112.514 16.1838C112.514 16.7082 112.233 16.9966 111.671 17.049C111.16 17.0228 110.904 16.7475 110.904 16.2231C110.904 15.3579 110.892 14.5058 110.866 13.6667C110.841 12.8015 110.802 11.9363 110.751 11.071C110.726 10.4418 110.751 9.79942 110.828 9.14394C110.93 8.48846 110.981 7.84609 110.981 7.21683C110.981 6.98085 110.981 6.73177 110.981 6.46958C111.007 6.23361 111.019 5.98453 111.019 5.72233C111.019 4.80466 111.019 4.16229 111.019 3.79522L110.713 2.14342C110.611 1.46172 110.713 0.924226 111.019 0.530939ZM139.792 14.6106C139.511 15.0039 139.23 15.3448 138.949 15.6332C138.694 15.9216 138.413 16.1707 138.106 16.3804C137.8 16.564 137.468 16.7344 137.11 16.8917C136.753 17.0228 136.357 17.1146 135.923 17.167C135.693 17.1932 135.45 17.2063 135.195 17.2063C134.965 17.2325 134.709 17.2194 134.428 17.167C134.045 17.1408 133.662 17.1277 133.279 17.1277C132.921 17.1277 132.551 17.0883 132.168 17.0097C131.325 16.7999 130.623 16.4984 130.061 16.1051C129.499 15.7118 129.077 15.2006 128.796 14.5713C128.413 13.7061 128.63 13.2603 129.448 13.2341C129.575 13.2341 129.729 13.339 129.908 13.5488C130.112 13.7585 130.265 13.9158 130.367 14.0207C130.725 14.3878 130.929 14.5844 130.98 14.6106H131.019V14.65C131.861 15.253 132.998 15.5545 134.428 15.5545H134.467C135.054 15.5545 135.808 15.4365 136.727 15.2006C137.647 14.9646 138.26 14.4926 138.566 13.7847C138.719 13.339 138.719 12.8671 138.566 12.3689V12.3296C138.132 11.3857 137.276 10.7564 135.999 10.4418L132.781 9.57655C132.321 9.47168 131.772 9.24881 131.134 8.90796C130.801 8.72443 130.521 8.56712 130.291 8.43602C130.035 8.2787 129.831 8.1345 129.678 8.0034C128.962 7.4528 128.541 6.91531 128.413 6.39092C128.388 6.28605 128.375 6.15495 128.375 5.99763C128.375 5.84032 128.375 5.64368 128.375 5.4077C128.375 5.14551 128.401 4.89643 128.452 4.66046C128.477 4.42449 128.515 4.1754 128.567 3.91321C128.669 3.0742 129.001 2.34006 129.563 1.7108C129.818 1.42239 130.137 1.18642 130.521 1.00288C130.904 0.819349 131.274 0.648924 131.632 0.491609C132.117 0.255636 132.615 0.137651 133.126 0.137651C133.662 0.111432 134.199 0.111432 134.735 0.137651C136.446 0.19009 137.774 0.806239 138.719 1.9861C139.179 2.5367 139.345 2.99554 139.218 3.36261L139.064 3.51992C138.783 3.67724 138.451 3.58547 138.068 3.24462C137.966 3.16597 137.864 3.08731 137.762 3.00865C137.685 2.90377 137.596 2.81201 137.493 2.73335C137.417 2.62847 137.302 2.5236 137.149 2.41872C137.021 2.34006 136.868 2.24829 136.689 2.14342L136.651 2.10409H136.574C135.91 1.89434 135.246 1.77635 134.582 1.75013C133.918 1.72391 133.228 1.78946 132.513 1.94677C131.644 2.13031 130.98 2.49738 130.521 3.04798C130.086 3.57236 129.869 4.26717 129.869 5.1324V5.21106V5.25039C129.946 6.35159 130.789 7.13817 132.398 7.61012L133.164 7.84609L135.08 8.51468C135.386 8.61955 135.693 8.73754 135.999 8.86863C136.28 8.99973 136.587 9.13083 136.919 9.26192C137.404 9.49789 137.864 9.73387 138.298 9.96984C138.707 10.1796 139.09 10.4025 139.447 10.6384C139.677 10.7957 139.869 10.9924 140.022 11.2284C140.15 11.4643 140.226 11.7134 140.252 11.9756C140.303 12.2378 140.329 12.5131 140.329 12.8015C140.303 13.0899 140.265 13.3521 140.214 13.5881C140.188 13.7716 140.137 13.9552 140.06 14.1387C139.984 14.3222 139.894 14.4795 139.792 14.6106ZM159.332 1.51416C159.076 1.80257 158.668 1.92056 158.106 1.86812L156.803 1.78946C156.548 1.78946 156.292 1.77635 156.037 1.75013C155.807 1.72391 155.552 1.7108 155.271 1.7108C154.76 1.7108 154.377 1.82879 154.121 2.06476C153.942 2.30073 153.853 2.69402 153.853 3.24462C153.853 3.4806 153.866 3.71657 153.891 3.95254C153.917 4.21473 153.93 4.46381 153.93 4.69979C153.955 5.30283 153.968 5.82721 153.968 6.27294C153.968 6.69244 153.968 7.05951 153.968 7.37414C153.968 8.29181 153.917 9.20948 153.815 10.1272C153.764 10.5467 153.764 10.9662 153.815 11.3857C153.866 11.8314 153.904 12.264 153.93 12.6835C153.955 13.1293 153.968 13.5225 153.968 13.8634C153.968 14.2042 153.968 14.4926 153.968 14.7286C153.968 14.8335 153.968 14.9515 153.968 15.0826C153.968 15.2399 153.968 15.4365 153.968 15.6725C153.917 16.1707 153.879 16.4722 153.853 16.5771C153.623 16.9704 153.329 17.1146 152.972 17.0097C152.512 16.9048 152.282 16.564 152.282 15.9871C152.257 15.4365 152.269 14.8859 152.32 14.3353C152.372 13.7847 152.41 13.2472 152.435 12.7229C152.486 12.0936 152.486 11.4512 152.435 10.7957C152.359 10.1665 152.32 9.52411 152.32 8.86863C152.32 8.29181 152.346 7.70188 152.397 7.09884C152.448 6.4958 152.474 5.89276 152.474 5.28972C152.474 4.13607 152.295 3.31017 151.937 2.81201C151.733 2.57603 151.503 2.3925 151.248 2.2614C150.967 2.13031 150.66 2.03854 150.328 1.9861C149.996 1.95988 149.69 1.93366 149.409 1.90744C149.128 1.88123 148.847 1.86812 148.566 1.86812C148.361 1.86812 148.093 1.86812 147.761 1.86812C147.429 1.86812 147.174 1.81568 146.995 1.7108C146.867 1.63214 146.791 1.46172 146.765 1.19953C146.714 0.989774 146.74 0.819349 146.842 0.688253C146.944 0.4785 147.25 0.334294 147.761 0.255637C147.812 0.255637 147.902 0.255637 148.029 0.255637C148.77 0.229418 149.485 0.255637 150.175 0.334294C150.865 0.412952 151.58 0.426062 152.32 0.373624C152.601 0.373624 152.882 0.347405 153.163 0.294966C153.47 0.268747 153.776 0.255637 154.083 0.255637C154.67 0.255637 155.245 0.255637 155.807 0.255637C156.394 0.255637 156.982 0.242528 157.569 0.216309C157.876 0.216309 158.131 0.229418 158.336 0.255637C158.565 0.255637 158.757 0.294966 158.91 0.373624C159.447 0.766911 159.587 1.14709 159.332 1.51416ZM176.266 1.19953C176.624 1.59282 176.917 2.01232 177.147 2.45805C177.351 2.90377 177.569 3.36261 177.798 3.83455C178.054 4.35894 178.131 4.88332 178.028 5.4077C177.926 5.93209 177.645 6.44336 177.185 6.94153C176.828 7.33481 176.215 7.64944 175.346 7.88542C175.04 7.96407 174.708 8.05584 174.35 8.16072C173.993 8.26559 173.737 8.47535 173.584 8.78998C173.482 9.10461 173.507 9.41924 173.661 9.73387C173.839 10.0747 173.98 10.35 174.082 10.5598C174.184 10.7695 174.274 10.94 174.35 11.071C174.452 11.2284 174.567 11.425 174.695 11.661C174.823 11.8969 174.989 12.146 175.193 12.4082C175.602 12.985 176.023 13.5225 176.458 14.0207C176.917 14.5451 177.364 15.0301 177.798 15.4759L177.952 15.6332C178.335 16.0265 178.335 16.4066 177.952 16.7737C177.569 17.1932 177.185 17.2063 176.802 16.813C176.521 16.4984 176.266 16.2231 176.036 15.9871C175.806 15.7512 175.589 15.5283 175.385 15.3186C174.976 14.7679 174.593 14.2042 174.235 13.6274C173.954 13.2079 173.686 12.8146 173.431 12.4476C173.15 12.0805 172.894 11.6872 172.665 11.2677C171.949 9.98295 171.081 9.13083 170.059 8.71132C168.961 8.29181 168.156 8.44913 167.646 9.18326C167.492 9.44546 167.416 9.73387 167.416 10.0485V15.8692V16.2231C167.416 16.7475 167.148 17.0228 166.611 17.049C166.075 17.0228 165.807 16.6819 165.807 16.0265C165.807 15.607 165.819 15.1875 165.845 14.7679C165.87 14.3222 165.883 13.8503 165.883 13.3521C165.909 13.0113 165.909 12.6573 165.883 12.2902C165.858 11.9232 165.845 11.5692 165.845 11.2284C165.845 10.8875 165.858 10.5467 165.883 10.2058C165.883 9.86496 165.883 9.52411 165.883 9.18326C165.909 8.39669 165.883 7.57079 165.807 6.70555C165.807 6.10251 165.819 5.49947 165.845 4.89643C165.87 4.29339 165.883 3.67724 165.883 3.04798C165.858 2.73335 165.845 2.36628 165.845 1.94677C165.845 1.55349 165.896 1.18642 165.998 0.845568C166.305 0.426062 167.045 0.216309 168.22 0.216309H169.025C169.663 0.216309 170.302 0.242528 170.94 0.294966C171.579 0.347405 172.205 0.360513 172.818 0.334294C174.274 0.255637 175.423 0.544048 176.266 1.19953ZM168.91 7.02018C169.574 7.0464 170.161 7.05951 170.672 7.05951C171.183 7.05951 171.605 7.03329 171.937 6.98085C172.269 6.95463 172.639 6.91531 173.048 6.86287C173.456 6.81043 173.903 6.73177 174.389 6.6269C175.385 6.41714 176.036 5.9452 176.343 5.21106C176.47 4.94887 176.521 4.66046 176.496 4.34583C176.445 4.00498 176.343 3.70346 176.189 3.44127C176.011 3.17907 175.793 2.95621 175.538 2.77268C175.283 2.58914 175.014 2.41872 174.733 2.2614C174.427 2.13031 174.133 2.03854 173.852 1.9861C173.112 1.85501 172.384 1.80257 171.668 1.82879C170.953 1.85501 170.225 1.8419 169.485 1.78946C169.357 1.78946 169.216 1.78946 169.063 1.78946C168.935 1.78946 168.808 1.78946 168.68 1.78946C168.297 1.76324 168.016 1.85501 167.837 2.06476C167.684 2.24829 167.62 2.49738 167.646 2.81201C167.671 2.91688 167.684 3.11353 167.684 3.40194C167.658 3.66413 167.62 3.92632 167.569 4.18851C167.543 4.42448 167.518 4.67357 167.492 4.93576C167.39 5.61746 167.467 6.12873 167.722 6.46958C167.952 6.81043 168.348 6.99396 168.91 7.02018ZM185.001 15.4365C184.976 14.3353 184.963 13.2472 184.963 12.1723C184.988 11.071 185.001 9.96984 185.001 8.86863V7.92475C185.001 7.4528 184.988 6.96775 184.963 6.46958C184.937 5.97142 184.937 5.48636 184.963 5.01442C184.988 4.46381 185.001 3.92632 185.001 3.40194C185.001 2.87755 185.001 2.34006 185.001 1.78946C185.001 1.1602 185.155 0.714473 185.461 0.452281C185.691 0.268747 186.087 0.176979 186.649 0.176979C186.955 0.176979 187.223 0.163871 187.453 0.137651C187.658 0.137651 187.836 0.137651 187.99 0.137651C188.679 0.111432 189.369 0.111432 190.059 0.137651C190.723 0.163871 191.4 0.176979 192.089 0.176979C192.447 0.15076 192.817 0.137651 193.2 0.137651C193.558 0.111432 193.915 0.124541 194.273 0.176979L195.614 0.255637C195.767 0.255637 195.895 0.255637 195.997 0.255637C196.125 0.255637 196.227 0.281856 196.304 0.334294C196.661 0.517828 196.84 0.79313 196.84 1.1602C196.814 1.31751 196.751 1.44861 196.648 1.55349C196.546 1.65836 196.431 1.73702 196.304 1.78946C196.176 1.8419 196.035 1.86812 195.882 1.86812C195.754 1.89434 195.627 1.90744 195.499 1.90744C194.452 1.90744 193.405 1.88123 192.357 1.82879C192.255 1.80257 192.127 1.78946 191.974 1.78946C191.795 1.78946 191.617 1.78946 191.438 1.78946H189.905C189.497 1.78946 189.139 1.80257 188.833 1.82879C188.526 1.82879 188.271 1.82879 188.066 1.82879C187.76 1.85501 187.517 1.89434 187.338 1.94677C187.134 2.02543 186.994 2.13031 186.917 2.2614C186.764 2.47116 186.7 2.74646 186.725 3.08731C186.725 3.2184 186.725 3.33639 186.725 3.44127C186.725 3.54614 186.725 3.65102 186.725 3.7559C186.674 3.96565 186.649 4.18851 186.649 4.42448C186.623 4.66046 186.623 4.92265 186.649 5.21106C186.649 5.70922 186.84 6.12873 187.223 6.46958C187.53 6.75799 188.092 6.87598 188.909 6.82354C189.292 6.82354 189.663 6.79732 190.02 6.74488C190.378 6.69244 190.735 6.67933 191.093 6.70555C191.246 6.70555 191.451 6.70555 191.706 6.70555C191.961 6.73177 192.268 6.73177 192.626 6.70555C193.315 6.67933 193.788 6.79732 194.043 7.05951C194.12 7.19061 194.145 7.40036 194.12 7.68877C194.069 8.0034 193.826 8.20005 193.392 8.2787C192.983 8.35736 192.664 8.39669 192.434 8.39669C192.127 8.42291 191.821 8.42291 191.514 8.39669C191.208 8.39669 190.889 8.4098 190.557 8.43602C190.173 8.46224 189.79 8.46224 189.407 8.43602C188.999 8.43602 188.577 8.4098 188.143 8.35736C188.092 8.35736 188.028 8.35736 187.951 8.35736C187.875 8.35736 187.811 8.35736 187.76 8.35736H187.721C187.543 8.30492 187.351 8.34425 187.147 8.47535C186.84 8.65888 186.674 8.99973 186.649 9.4979C186.598 9.96984 186.598 10.3762 186.649 10.7171C186.649 10.9006 186.661 11.071 186.687 11.2284C186.687 11.4119 186.674 11.5561 186.649 11.661C186.623 11.9494 186.598 12.2116 186.572 12.4476C186.547 12.7097 186.521 12.985 186.495 13.2735C186.444 13.9552 186.521 14.4664 186.725 14.8073C187.032 15.2006 187.555 15.3972 188.296 15.3972C188.858 15.3972 189.446 15.3841 190.059 15.3579C190.646 15.3317 191.233 15.3054 191.821 15.2792C192.357 15.253 192.906 15.2661 193.468 15.3186C194.056 15.371 194.631 15.3972 195.192 15.3972C195.397 15.3972 195.665 15.3972 195.997 15.3972C196.355 15.3972 196.636 15.4496 196.84 15.5545C196.993 15.6594 197.083 15.8167 197.108 16.0265C197.312 16.6819 197.044 17.0228 196.304 17.049C195.154 17.1015 194.018 17.1146 192.894 17.0883C191.795 17.0883 190.684 17.0883 189.56 17.0883C189.509 17.0883 189.446 17.1015 189.369 17.1277C189.318 17.1277 189.267 17.1277 189.216 17.1277C188.807 17.1277 188.462 17.1277 188.181 17.1277C187.875 17.1277 187.632 17.1146 187.453 17.0883C187.326 17.0883 187.185 17.0883 187.032 17.0883C186.853 17.0883 186.661 17.0752 186.457 17.049C186.278 17.0228 186.138 17.0097 186.036 17.0097C185.908 16.9835 185.819 16.9572 185.768 16.931C185.257 16.7737 185.001 16.2756 185.001 15.4365ZM217.874 16.1445C217.874 16.6164 217.682 16.9048 217.299 17.0097C216.992 17.167 216.711 17.0621 216.456 16.6951C216.354 16.5115 216.252 16.3542 216.15 16.2231C216.073 16.0658 216.009 15.9347 215.958 15.8298C215.728 15.2792 215.511 14.8073 215.307 14.414C215.128 13.9945 214.936 13.6667 214.732 13.4308C214.323 12.8277 213.864 12.4476 213.353 12.2902C212.919 12.1591 212.216 12.146 211.246 12.2509C210.684 12.3033 210.16 12.3427 209.675 12.3689C209.164 12.3951 208.691 12.382 208.257 12.3296C207.235 12.2771 206.482 12.618 205.997 13.3521L205.958 13.4308L205.92 13.4701C205.741 13.8372 205.601 14.1911 205.499 14.532C205.371 14.8728 205.23 15.2137 205.077 15.5545L204.541 16.4198C204.285 16.813 204.03 17.0228 203.775 17.049C203.647 17.1015 203.468 17.0359 203.238 16.8524C203.136 16.7213 203.072 16.5902 203.047 16.4591C203.021 16.3018 203.021 16.1445 203.047 15.9871C203.072 15.8298 203.11 15.6594 203.162 15.4759C203.238 15.3186 203.302 15.1743 203.353 15.0432L203.966 13.7061C204.579 12.3951 205.154 11.0842 205.69 9.7732C206.227 8.43602 206.788 7.09884 207.376 5.76166C207.478 5.52569 207.567 5.30283 207.644 5.09307C207.721 4.88332 207.81 4.68668 207.912 4.50314C208.091 4.00498 208.283 3.51992 208.487 3.04798C208.666 2.54981 208.883 2.05165 209.138 1.55349L209.521 0.963555C209.726 0.622706 209.917 0.452281 210.096 0.452281C210.249 0.399843 210.466 0.544049 210.747 0.884898C211.054 1.25197 211.348 1.67147 211.629 2.14342C211.884 2.64158 212.114 3.10042 212.318 3.51992C212.931 4.8571 213.493 6.19428 214.004 7.53146C214.54 8.86864 215.115 10.1796 215.728 11.4643C215.932 11.8576 216.124 12.2509 216.303 12.6442C216.482 13.0637 216.673 13.457 216.877 13.8241C216.98 14.0863 217.095 14.3484 217.222 14.6106C217.324 14.8466 217.427 15.0957 217.529 15.3579C217.631 15.5414 217.708 15.6987 217.759 15.8298C217.81 15.9609 217.848 16.0658 217.874 16.1445ZM212.663 8.63266C212.484 8.21316 212.318 7.76743 212.165 7.29548C211.986 6.84976 211.795 6.40403 211.59 5.95831C211.156 5.14551 210.684 4.75222 210.173 4.77844C209.994 4.77844 209.828 4.83088 209.675 4.93576C209.521 5.06685 209.394 5.19795 209.292 5.32905C209.189 5.48636 209.1 5.65679 209.023 5.84032C208.921 6.02385 208.845 6.19428 208.794 6.35159C208.615 6.87598 208.436 7.42658 208.257 8.0034C208.078 8.58022 207.912 9.14394 207.759 9.69454C207.631 10.0878 207.644 10.3762 207.797 10.5598C207.9 10.7433 208.168 10.8482 208.602 10.8744C208.985 10.9006 209.33 10.9268 209.636 10.9531C209.943 10.9531 210.186 10.94 210.364 10.9137C210.747 10.9137 211.258 10.8613 211.897 10.7564C212.535 10.6515 212.918 10.3631 213.046 9.89118C213.097 9.60277 213.059 9.35369 212.931 9.14394C212.906 9.06528 212.855 8.98662 212.778 8.90796C212.727 8.80309 212.689 8.71132 212.663 8.63266ZM238.064 0.766911C238.218 0.714473 238.499 0.740692 238.907 0.845568C239.316 0.950445 239.559 1.08154 239.635 1.23886C239.635 1.26507 239.648 1.27819 239.674 1.27819C239.725 1.80257 239.75 2.57603 239.75 3.59858V5.60435C239.776 6.15495 239.789 6.67933 239.789 7.1775C239.814 7.67566 239.814 8.18694 239.789 8.71132C239.737 9.2357 239.699 9.74698 239.674 10.2451C239.648 10.7433 239.648 11.2415 239.674 11.7396C239.699 12.1854 239.725 12.618 239.75 13.0375C239.776 13.457 239.776 13.8765 239.75 14.296L239.674 15.5545C239.648 16.1576 239.584 16.5246 239.482 16.6557C239.303 16.9441 239.086 17.0883 238.831 17.0883C238.269 17.0359 237.975 16.6164 237.95 15.8298C237.898 14.6762 237.898 13.5225 237.95 12.3689C238.026 11.2153 238.013 10.0485 237.911 8.86863L237.835 7.68877C237.809 7.11195 237.579 6.79732 237.145 6.74488C236.966 6.74488 236.813 6.7711 236.685 6.82354C236.557 6.9022 236.455 7.00707 236.379 7.13817C236.277 7.26926 236.2 7.40036 236.149 7.53146C236.098 7.68877 236.047 7.83298 235.996 7.96407C235.868 8.33114 235.74 8.65888 235.612 8.94729C235.51 9.2357 235.421 9.48479 235.344 9.69454C235.165 10.0616 234.961 10.4418 234.731 10.8351C234.527 11.2021 234.323 11.5692 234.118 11.9363C233.939 12.3296 233.748 12.7097 233.544 13.0768C233.365 13.4177 233.186 13.7716 233.007 14.1387C232.905 14.3484 232.586 14.4402 232.049 14.414C231.692 14.414 231.424 14.3091 231.245 14.0994C231.092 13.942 230.951 13.7061 230.823 13.3914C230.67 13.103 230.491 12.736 230.287 12.2902C230.159 11.9756 230.032 11.7134 229.904 11.5037C229.802 11.2677 229.712 11.0842 229.636 10.9531C229.533 10.822 229.419 10.6253 229.291 10.3631C229.189 10.1009 229.035 9.76009 228.831 9.34058L228.141 7.80676C228.039 7.62322 227.963 7.49213 227.912 7.41347C227.835 7.30859 227.797 7.24305 227.797 7.21683C227.516 6.87598 227.209 6.74488 226.877 6.82354C226.443 6.87598 226.226 7.26927 226.226 8.0034C226.226 9.15705 226.239 10.2451 226.264 11.2677C226.29 12.264 226.315 13.221 226.341 14.1387C226.341 14.2698 226.341 14.4533 226.341 14.6893C226.341 14.899 226.328 15.1612 226.302 15.4759C226.277 16.1313 226.213 16.5377 226.111 16.6951C225.932 16.9572 225.664 17.0752 225.306 17.049C224.847 17.0228 224.617 16.6688 224.617 15.9871C224.617 15.2006 224.604 14.4009 224.578 13.5881C224.553 12.7753 224.527 11.9363 224.502 11.071C224.502 10.6778 224.502 10.3107 224.502 9.96984C224.502 9.62899 224.527 9.34058 224.578 9.10461C224.629 8.65888 224.655 8.26559 224.655 7.92475C224.655 7.5839 224.655 7.29548 224.655 7.05951C224.629 6.7711 224.604 6.46958 224.578 6.15495C224.527 5.8141 224.476 5.46014 224.425 5.09307C224.374 4.56869 224.387 3.93943 224.463 3.20529C224.54 2.44494 224.642 1.81568 224.77 1.31751C224.821 1.10776 224.872 0.950445 224.923 0.845568C225.408 0.321185 225.894 0.386734 226.379 1.04221C226.558 1.3044 226.737 1.57971 226.915 1.86812C227.094 2.15653 227.273 2.44494 227.452 2.73335C227.733 3.15286 227.988 3.61169 228.218 4.10985C228.422 4.60802 228.627 5.07996 228.831 5.52569C229.035 5.99764 229.227 6.41714 229.406 6.78421C229.559 7.12506 229.712 7.40036 229.866 7.61012L229.942 7.76743C230.146 8.08206 230.312 8.39669 230.44 8.71132C230.593 9.02595 230.734 9.32747 230.862 9.61588C231.245 10.4549 231.641 10.8875 232.049 10.9137C232.458 10.9137 232.752 10.7302 232.931 10.3631C233.007 10.1796 233.084 9.99606 233.16 9.81253C233.237 9.62899 233.301 9.45857 233.352 9.30125C233.48 9.01284 233.633 8.69821 233.812 8.35736C233.965 8.01651 234.144 7.67566 234.348 7.33481C234.706 6.70555 235.076 6.07629 235.459 5.44703C235.842 4.81777 236.187 4.14918 236.494 3.44127C236.596 3.23151 236.711 2.99554 236.838 2.73335C236.992 2.49738 237.145 2.24829 237.298 1.9861L237.796 1.19953C237.796 1.14709 237.822 1.09465 237.873 1.04221C237.924 0.963555 237.988 0.871788 238.064 0.766911Z" fill="#DAA5DE"/>
<path d="M21.1122 0.187958H23.6825C27.3879 0.480822 30.367 1.51862 33.0103 2.9022C28.7693 7.44392 24.4351 11.8929 20.0105 16.2462C18.6911 14.4918 17.2491 13.084 14.1352 13.3819C11.092 13.673 8.79897 16.4789 8.77364 19.564C8.73231 24.6276 14.389 27.5133 18.5418 24.691C19.6328 23.9497 20.634 22.6938 21.6263 21.6752C24.5851 18.6375 27.5674 15.5291 30.5128 12.4769C32.9441 14.7244 35.2705 17.2859 37.7102 19.7903C37.9652 20.0521 38.7345 20.6643 38.7385 20.7701C38.7478 20.9996 37.1516 22.4753 36.9756 22.6551C35.1825 24.4957 33.3631 26.3779 31.5407 28.0835C30.2764 25.3547 25.9569 24.3867 23.1684 26.1234C21.4646 27.1844 20.3749 28.8878 20.3038 31.2499C20.2056 34.5001 22.4613 37.3261 25.5921 37.6578C29.9324 38.118 31.6958 34.9348 33.8177 32.7575C37.3915 29.089 41.1031 25.2648 44.6142 21.8262C44.7511 29.3038 42.2221 34.6967 38.6647 38.4875C35.102 42.2838 30.3639 45.3211 23.6821 45.8H21.1117C14.88 45.2385 10.0784 42.6926 6.64323 39.1659C3.20853 35.6396 0.72483 30.7134 0.18045 24.3137V21.6747C0.541296 15.5077 3.37207 10.2238 6.717 6.82257C10.2601 3.21924 14.9911 0.684733 21.1122 0.187958Z" fill="#DAA5DE"/>
<path d="M52.4391 25.0478C52.4391 25.2082 52.5138 25.2221 52.6293 25.2221H53.0436C53.0844 25.2221 53.1319 25.9543 53.1319 26.5957C53.1319 26.6585 53.1727 28.3807 53.1727 29.4684V30.4027C53.1727 30.8699 53.1591 31.107 53.1251 31.107H52.7244C52.5681 31.107 52.5206 31.1139 52.5206 31.2534C52.5206 31.4207 52.5342 31.4556 52.6632 31.4556C52.8059 31.4556 53.3764 31.4277 53.6617 31.4277C53.947 31.4277 54.5855 31.4556 54.8028 31.4556C54.9183 31.4556 54.9387 31.4068 54.9387 31.2603C54.9387 31.1488 54.9183 31.107 54.8028 31.107H54.0353C53.9945 31.107 54.0081 29.6985 53.981 28.4225C53.981 28.2482 53.9674 28.2552 54.1032 28.2552H55.747C56.2225 28.2552 56.2428 28.3249 56.2428 28.4016V29.0012C56.2428 29.0849 56.3651 29.0849 56.4398 29.0849C56.5077 29.0849 56.596 29.0849 56.596 29.0082C56.596 28.8827 56.5757 28.4225 56.5757 28.0739C56.5757 27.7183 56.596 27.3697 56.596 27.279C56.596 27.2023 56.5145 27.2023 56.433 27.2023C56.3176 27.2023 56.2428 27.2023 56.2428 27.293V27.8089C56.2428 27.9275 55.9372 27.9345 55.747 27.9345H54.1032C53.9606 27.9345 53.981 27.9554 53.981 27.8089C53.9674 27.5858 53.9606 26.9025 53.9606 26.282C53.9606 25.766 53.9674 25.2012 54.0149 25.2012C54.9659 25.2012 56.4534 25.2291 56.6504 25.257C56.6504 25.3755 56.6232 25.9752 56.6232 26.024C56.6232 26.1286 56.6708 26.1704 56.793 26.1704C56.9289 26.1704 56.9764 26.1565 56.9764 26.0588C56.9764 25.2988 57.0104 24.9572 57.0104 24.7689C57.0104 24.6574 56.956 24.6364 56.8202 24.6364C56.7387 24.6364 56.6911 24.6364 56.6708 24.7829C56.6572 24.8805 56.7047 24.8805 56.0594 24.8805C55.6519 24.8805 54.1032 24.9084 53.6006 24.9084C53.2678 24.9084 52.6293 24.8805 52.5614 24.8805C52.473 24.8805 52.4391 24.9153 52.4391 25.0478ZM62.4715 28.297C62.4715 30.4027 64.0609 31.5393 65.5892 31.5393C67.4843 31.5393 68.8224 30.2075 68.8224 28.2343C68.8224 26.3308 67.6337 24.7829 65.7318 24.7829C63.9658 24.7829 62.4715 26.1704 62.4715 28.297ZM63.4224 28.0321C63.4224 26.5469 64.2986 25.1106 65.6367 25.1106C67.1582 25.1106 67.8918 26.6655 67.8918 28.1506C67.8918 29.6427 67.1379 31.2046 65.596 31.2046C64.2511 31.2046 63.4224 29.7822 63.4224 28.0321ZM74.331 25.0618C74.331 25.2082 74.3786 25.257 74.5076 25.257L75.0578 25.2431C75.1257 25.2431 75.1529 27.2233 75.1529 28.5759V29.8798C75.1529 30.4934 75.1461 31.107 75.1189 31.107H74.7114C74.5552 31.107 74.5076 31.1139 74.5076 31.2534C74.5076 31.4207 74.5348 31.4556 74.6706 31.4556C74.7589 31.4556 75.3159 31.4277 75.6012 31.4277C75.8865 31.4277 76.4095 31.4556 76.6269 31.4556C76.7423 31.4556 76.7627 31.4068 76.7627 31.2603C76.7627 31.1488 76.7423 31.107 76.6269 31.107H76.0767C76.0291 31.107 75.9748 29.0152 75.9748 28.4504C75.9748 28.4016 75.9748 28.3737 76.0495 28.3737C76.3144 28.3737 76.7219 28.3807 76.9257 28.3807C78.4472 28.4156 78.5423 29.5869 78.5423 30.7583V31.3231C78.5423 31.4068 78.5763 31.4277 78.6442 31.4277C78.6442 31.4277 79.6223 31.4556 79.9483 31.4556C80.0638 31.4556 80.0978 31.4277 80.0978 31.351C80.0978 31.1488 80.0638 31.107 79.9551 31.107H79.5204C79.4525 31.107 79.4321 31.0791 79.4185 30.5003C79.3574 28.8827 78.4268 28.4295 77.8087 28.2273C77.7136 28.1994 77.734 28.1994 77.8087 28.1576C78.2095 27.9763 79.0993 27.4533 79.0993 26.5399C79.0993 25.1454 77.9514 24.8526 77.0004 24.8526C76.7831 24.8526 75.9069 24.9084 75.6216 24.9084C75.3363 24.9084 74.6706 24.8875 74.5212 24.8875C74.3922 24.8875 74.331 24.9014 74.331 25.0618ZM75.9748 28.053V25.6823C75.9748 25.4383 75.9952 25.1803 76.0223 25.1803C76.165 25.1594 76.3552 25.1594 76.5046 25.1594C77.3876 25.1594 78.2367 25.7311 78.2367 26.6724C78.2367 27.4882 77.8631 27.8926 77.4216 28.1088C77.3876 28.1227 77.3604 28.1227 77.3129 28.1227C76.9936 28.1088 76.5046 28.1088 76.097 28.1018C75.9816 28.1018 75.9748 28.0878 75.9748 28.053ZM91.74 31.2534C91.74 31.4207 91.74 31.4556 91.8758 31.4556C91.9845 31.4556 92.2086 31.4277 92.5958 31.4277C93.0169 31.4277 93.3837 31.4556 93.4924 31.4556C93.6011 31.4556 93.6011 31.4068 93.6011 31.2603C93.6011 31.1488 93.6011 31.107 93.4924 31.107H92.7588C92.7588 31.107 92.7452 31.107 92.7452 31.1C92.7588 30.8908 93.2818 29.5172 93.5196 28.9036C93.5671 28.7712 93.5739 28.7433 93.7166 28.7433H95.6388C95.7339 28.7433 95.7339 28.7572 95.7814 28.9106C95.9648 29.4266 96.4471 30.9048 96.4471 31.1C96.4471 31.107 96.4403 31.107 96.4403 31.107H95.9173C95.7611 31.107 95.7543 31.1139 95.7543 31.2534C95.7543 31.4207 95.7611 31.4556 95.8765 31.4556C96.0939 31.4556 96.6848 31.4277 96.9701 31.4277C97.2554 31.4277 97.7105 31.4556 97.8531 31.4556C97.9482 31.4556 97.9618 31.4068 97.9618 31.2603C97.9618 31.1488 97.9482 31.107 97.8531 31.107H97.5203C97.4524 31.107 96.7596 29.1268 96.3792 28.039L95.2381 24.755C95.2313 24.7062 95.1837 24.6643 95.1226 24.6643C95.0411 24.6643 94.9732 24.8177 94.9188 24.9502C94.8101 25.2012 94.6471 25.2919 94.5724 25.4941L93.5671 27.8926C93.4449 28.1994 92.2834 31.107 92.1951 31.107H91.9098C91.7603 31.107 91.74 31.1139 91.74 31.2534ZM93.7098 28.4225C93.7098 28.4016 93.7301 28.3528 93.7573 28.2831L94.6879 25.9403C94.715 25.8636 94.7354 25.8287 94.7558 25.8287C94.7626 25.8287 94.7762 25.8427 94.8033 25.9403L95.5913 28.3179C95.6116 28.3667 95.6184 28.3946 95.6184 28.4156C95.6184 28.4434 95.5981 28.4504 95.5369 28.4504H93.832C93.7098 28.4504 93.7098 28.4295 93.7098 28.4225ZM103.036 25.0618C103.036 25.2291 103.097 25.2431 103.206 25.2431H103.572C103.606 25.2431 103.606 25.4871 103.606 25.7869C103.606 26.5609 103.6 28.8618 103.6 29.1825C103.6 30.3748 103.769 31.5393 105.712 31.5393C106.439 31.5393 107.233 31.2464 107.675 30.9814C107.852 30.8838 108.049 30.7862 108.103 30.7862C108.286 30.7862 108.47 31.4974 108.694 31.4974C108.911 31.4974 108.925 31.2255 108.925 31.1558C108.925 30.9536 108.959 29.6427 108.993 28.304C109.027 26.8816 109.02 25.2431 109.095 25.2431H109.312C109.468 25.2431 109.516 25.2291 109.516 25.0966C109.516 24.9293 109.482 24.8875 109.353 24.8875C109.258 24.8875 108.898 24.9153 108.612 24.9153C108.327 24.9153 107.784 24.8875 107.627 24.8875C107.505 24.8875 107.437 24.9014 107.437 25.0618C107.437 25.2291 107.519 25.2431 107.627 25.2431H108.103C108.15 25.2431 108.164 25.6126 108.164 26.01V28.9873C108.164 30.4167 108.164 30.3679 107.933 30.5213C107.668 30.7095 107.118 31.0372 106.316 31.0372C104.978 31.0372 104.435 30.4027 104.435 29.1756C104.435 28.7642 104.483 25.2431 104.557 25.2431H105.175C105.332 25.2431 105.359 25.2291 105.359 25.0966C105.359 24.9293 105.345 24.8875 105.216 24.8875C104.999 24.8875 104.394 24.9153 104.109 24.9153C103.824 24.9153 103.362 24.8875 103.206 24.8875C103.083 24.8875 103.036 24.9014 103.036 25.0618ZM114.922 31.3022C114.922 31.4207 114.936 31.4695 115.058 31.4695C115.16 31.4695 115.996 31.4277 116.267 31.4277C116.845 31.4277 117.442 31.4695 118.027 31.4695C119.799 31.4695 121.43 30.333 121.43 28.1297C121.43 26.024 119.84 24.755 117.775 24.755C117.395 24.755 116.539 24.8665 115.839 24.8665C115.513 24.8665 115.201 24.8596 115.16 24.8596C115.038 24.8596 115.031 24.9293 115.031 25.0478C115.031 25.1803 115.079 25.1942 115.16 25.1942L115.819 25.1733C115.839 25.1733 115.839 25.5429 115.839 25.9054C115.839 26.7352 115.778 31.1279 115.724 31.1279H115.113C114.99 31.1279 114.922 31.1348 114.922 31.3022ZM116.675 30.5631C116.675 29.2104 116.675 27.8578 116.682 26.519C116.682 26.1216 116.709 25.1315 116.743 25.1245C116.94 25.0757 117.341 25.0618 117.578 25.0618C119.317 25.0618 120.411 26.6236 120.411 28.0042C120.411 28.8548 120.384 31.1558 117.205 31.1558C117.028 31.1558 116.75 31.1558 116.682 31.1279C116.675 31.1139 116.675 30.835 116.675 30.5631ZM126.836 31.2534C126.836 31.4207 126.87 31.4556 126.999 31.4556C127.217 31.4556 127.733 31.4277 128.215 31.4277C128.664 31.4277 129.207 31.4556 129.356 31.4556C129.472 31.4556 129.492 31.4068 129.492 31.2603C129.492 31.1488 129.472 31.107 129.356 31.107H128.704C128.636 31.107 128.616 29.2732 128.616 28.0251V26.7073C128.616 26.1983 128.636 25.1942 128.704 25.1942H129.322C129.472 25.1942 129.492 25.1803 129.492 25.0478C129.492 24.8805 129.472 24.8386 129.356 24.8386C129.139 24.8386 128.684 24.8665 128.236 24.8665C127.685 24.8665 127.203 24.8386 127.047 24.8386C126.925 24.8386 126.877 24.8526 126.877 25.013C126.877 25.1803 126.931 25.1942 127.047 25.1942H127.679C127.706 25.1942 127.753 25.9543 127.753 26.5957V27.551C127.753 28.8339 127.74 31.107 127.665 31.107H127.04C126.884 31.107 126.836 31.1139 126.836 31.2534ZM134.906 28.297C134.906 30.4027 136.488 31.5393 138.023 31.5393C139.912 31.5393 141.257 30.2075 141.257 28.2343C141.257 26.3308 140.068 24.7829 138.166 24.7829C136.393 24.7829 134.906 26.1704 134.906 28.297ZM135.857 28.0321C135.857 26.5469 136.726 25.1106 138.071 25.1106C139.592 25.1106 140.326 26.6655 140.326 28.1506C140.326 29.6427 139.572 31.2046 138.03 31.2046C136.679 31.2046 135.857 29.7822 135.857 28.0321ZM146.758 25.0618C146.758 25.2291 146.792 25.257 146.935 25.257L147.56 25.2431C147.601 25.2431 147.601 25.7311 147.601 26.268V26.77C147.601 27.9833 147.587 31.107 147.512 31.107H147.057C146.901 31.107 146.854 31.1139 146.854 31.2534C146.854 31.4207 146.867 31.4556 146.996 31.4556C147.085 31.4556 147.75 31.4277 148.035 31.4277C148.321 31.4277 148.912 31.4556 149.129 31.4556C149.244 31.4556 149.265 31.4068 149.265 31.2603C149.265 31.1488 149.244 31.107 149.129 31.107H148.457C148.423 31.107 148.416 30.0053 148.416 29.2941V28.6456C148.416 28.5899 148.416 28.569 148.484 28.569C148.749 28.569 148.966 28.5968 149.312 28.5968C150.657 28.5968 151.608 28.0739 151.608 26.8049C151.608 25.4662 150.603 24.8596 149.299 24.8596C149.081 24.8596 148.341 24.9084 148.056 24.9084C147.893 24.9084 147.085 24.8875 146.935 24.8875C146.806 24.8875 146.758 24.9014 146.758 25.0618ZM148.423 28.2273V25.6823C148.423 25.4383 148.436 25.1942 148.463 25.1803C148.552 25.1733 148.66 25.1733 148.755 25.1733C149.883 25.1733 150.739 25.7311 150.739 26.6585C150.739 27.8926 149.835 28.3249 148.755 28.3249C148.586 28.3249 148.423 28.304 148.423 28.2273ZM156.879 31.2534C156.879 31.4207 156.879 31.4556 157.015 31.4556C157.232 31.4556 157.871 31.4277 158.156 31.4277C158.441 31.4277 158.998 31.4556 159.216 31.4556C159.331 31.4556 159.331 31.4068 159.331 31.2603C159.331 31.1488 159.331 31.107 159.216 31.107H158.591C158.537 31.107 158.503 29.5381 158.503 28.3319C158.503 28.1994 158.503 28.1994 158.591 28.1994H162.15C162.198 28.1994 162.204 28.1994 162.204 28.3179V29.5242C162.204 30.3191 162.198 31.107 162.157 31.107H161.634C161.484 31.107 161.45 31.1139 161.45 31.2534C161.45 31.4207 161.464 31.4556 161.593 31.4556C161.817 31.4556 162.388 31.4277 162.673 31.4277C162.958 31.4277 163.352 31.4556 163.576 31.4556C163.685 31.4556 163.699 31.4068 163.699 31.2603C163.699 31.1488 163.685 31.107 163.576 31.107H163.067C163.04 31.107 163.033 29.0779 163.033 27.5231C163.033 26.3796 163.033 25.1942 163.06 25.1942H163.481C163.631 25.1942 163.658 25.1803 163.658 25.0478C163.658 24.8805 163.651 24.8386 163.515 24.8386C163.42 24.8386 162.992 24.8665 162.592 24.8665C162.136 24.8665 161.729 24.8386 161.58 24.8386C161.444 24.8386 161.423 24.8596 161.423 25.013C161.423 25.1733 161.471 25.1942 161.586 25.1942H162.13C162.164 25.1942 162.204 25.9543 162.204 26.5957V27.788C162.204 27.9066 162.204 27.9066 162.089 27.9066H158.618C158.503 27.9066 158.503 27.9066 158.503 27.7601C158.503 27.4673 158.496 26.9583 158.496 26.4702C158.496 25.8636 158.503 25.1942 158.543 25.1942H159.066C159.216 25.1942 159.25 25.1803 159.25 25.0478C159.25 24.8805 159.236 24.8386 159.107 24.8386C158.883 24.8386 158.489 24.8665 158.075 24.8665C157.681 24.8665 157.348 24.8386 157.192 24.8386C157.069 24.8386 157.001 24.8526 157.001 25.013C157.001 25.1803 157.076 25.1942 157.192 25.1942H157.613C157.647 25.1942 157.66 26.5121 157.66 27.6207V28.6178C157.66 29.6427 157.647 31.107 157.599 31.107H157.049C156.9 31.107 156.879 31.1139 156.879 31.2534ZM169.058 31.2534C169.058 31.4207 169.092 31.4556 169.221 31.4556C169.438 31.4556 169.955 31.4277 170.437 31.4277C170.885 31.4277 171.429 31.4556 171.578 31.4556C171.693 31.4556 171.714 31.4068 171.714 31.2603C171.714 31.1488 171.693 31.107 171.578 31.107H170.926C170.858 31.107 170.838 29.2732 170.838 28.0251V26.7073C170.838 26.1983 170.858 25.1942 170.926 25.1942H171.544C171.693 25.1942 171.714 25.1803 171.714 25.0478C171.714 24.8805 171.693 24.8386 171.578 24.8386C171.361 24.8386 170.905 24.8665 170.457 24.8665C169.907 24.8665 169.425 24.8386 169.269 24.8386C169.146 24.8386 169.099 24.8526 169.099 25.013C169.099 25.1803 169.153 25.1942 169.269 25.1942H169.9C169.927 25.1942 169.975 25.9543 169.975 26.5957V27.551C169.975 28.8339 169.961 31.107 169.887 31.107H169.262C169.105 31.107 169.058 31.1139 169.058 31.2534ZM177.08 31.2534C177.08 31.4207 177.093 31.4556 177.229 31.4556C177.447 31.4556 178.105 31.4277 178.391 31.4277C178.676 31.4277 181.631 31.4556 181.848 31.4556C182.031 31.4556 182.079 31.4416 182.086 31.3231C182.127 31.0372 182.29 30.089 182.29 30.0053C182.29 29.9147 182.181 29.8937 182.072 29.8868C182.004 29.8798 181.943 29.9077 181.936 29.9774L181.821 30.8141C181.794 31.0163 181.787 31.0024 181.631 31.0093C181.529 31.0163 179.824 31.0651 178.853 31.0651C178.825 31.0651 178.798 30.5492 178.798 29.9635V27.2581C178.798 26.3796 178.805 25.1942 178.873 25.1942H179.539C179.702 25.1942 179.722 25.1454 179.722 25.013C179.722 24.8665 179.708 24.8386 179.552 24.8386C179.328 24.8386 178.696 24.8665 178.411 24.8665C178.126 24.8665 177.487 24.8386 177.331 24.8386C177.182 24.8386 177.141 24.8596 177.141 25.013C177.141 25.1594 177.175 25.1942 177.304 25.1942H177.868C177.895 25.1942 177.915 25.5638 177.915 26.031V28.2831C177.915 29.6357 177.895 31.107 177.841 31.107H177.27C177.114 31.107 177.08 31.1279 177.08 31.2534ZM187.459 31.2534C187.459 31.4207 187.479 31.4556 187.615 31.4556C187.832 31.4556 188.491 31.4277 188.776 31.4277C189.062 31.4277 192.118 31.4556 192.342 31.4556C192.424 31.4556 192.533 31.4416 192.533 31.3231C192.533 31.0303 192.56 30.4446 192.56 29.9565C192.56 29.8589 192.451 29.8589 192.369 29.8589C192.295 29.8589 192.206 29.8589 192.206 29.9425C192.2 30.326 192.2 30.5701 192.179 30.8141C192.159 30.9884 192.159 31.0093 192.091 31.0093C191.989 31.0093 190.203 31.0372 189.184 31.0372C189.136 31.0372 189.109 29.6636 189.075 28.3737C189.075 28.2343 189.109 28.2552 189.204 28.2552H190.753C191.228 28.2552 191.249 28.3319 191.249 28.4016V28.8897C191.249 28.9873 191.371 28.9873 191.446 28.9873C191.514 28.9873 191.595 28.9803 191.595 28.9036C191.595 28.7712 191.582 28.4225 191.582 28.0739C191.582 27.7183 191.595 27.3766 191.595 27.293C191.595 27.2093 191.5 27.2023 191.439 27.2023C191.357 27.2023 191.249 27.2093 191.249 27.3V27.8089C191.249 27.9275 190.943 27.9345 190.753 27.9345H189.163C189.089 27.9345 189.075 27.9345 189.075 27.8089C189.068 27.3209 189.062 26.8398 189.062 26.4214C189.062 26.1843 189.062 25.2012 189.116 25.2012C189.951 25.2012 191.656 25.2291 191.656 25.2709C191.656 25.3964 191.629 25.9821 191.629 26.024C191.629 26.1286 191.677 26.1704 191.799 26.1704C191.928 26.1704 191.976 26.1565 191.976 26.0588C191.976 25.2988 192.016 24.9572 192.016 24.7689C192.016 24.6434 191.962 24.6364 191.826 24.6364C191.69 24.6364 191.69 24.6713 191.677 24.7829C191.663 24.8805 191.711 24.8805 191.093 24.8805C190.678 24.8805 189.218 24.9084 188.695 24.9084C188.362 24.9084 187.73 24.8805 187.662 24.8805C187.574 24.8805 187.54 24.9153 187.54 25.0478C187.54 25.2082 187.588 25.2221 187.696 25.2221H188.145C188.185 25.2221 188.233 25.9543 188.233 26.5957C188.233 26.6585 188.267 28.3807 188.267 29.4684V30.4027C188.267 30.8699 188.253 31.107 188.233 31.107H187.649C187.499 31.107 187.459 31.1279 187.459 31.2534ZM198.109 26.6376C198.109 28.9385 201.498 28.3319 201.498 30.0402C201.498 30.6956 200.928 31.1976 200.262 31.1976C199.699 31.1976 198.619 30.8629 198.598 30.6119L198.537 29.6915C198.53 29.566 198.483 29.5242 198.36 29.5242H198.313C198.17 29.5242 198.17 29.5869 198.17 29.6706C198.17 29.8101 198.245 30.7444 198.265 31.1C198.272 31.2464 199.128 31.5741 200.174 31.5741C201.24 31.5741 202.334 30.8908 202.334 29.6636C202.334 27.3488 198.958 28.1018 198.958 26.3238C198.958 25.6196 199.488 25.0966 200.194 25.0966C200.887 25.0966 201.628 25.8078 201.628 26.024C201.628 26.1076 201.6 26.6097 201.6 26.6445C201.6 26.7421 201.628 26.791 201.811 26.791C201.974 26.791 201.981 26.7561 201.981 26.6236C201.981 26.1286 202.042 25.1803 202.042 25.0757C202.042 24.9153 202.008 24.9084 201.831 24.9084C201.675 24.9084 201.668 24.9293 201.662 25.0757C201.662 25.1315 201.648 25.25 201.621 25.25C201.58 25.25 201.526 25.2221 201.478 25.1803C200.935 24.8038 200.52 24.7619 200.174 24.7619C199.142 24.7619 198.109 25.522 198.109 26.6376Z" fill="#DAA5DE"/>
</g>
<defs>
<clipPath id="clip0_24_2">
<rect width="240" height="45.988" fill="white"/>
</clipPath>
</defs>
</svg>
