<svg width="45" height="46" viewBox="0 0 45 46" fill="none" xmlns="http://www.w3.org/2000/svg">
<path d="M21.1122 0.187958H23.6825C27.3879 0.480822 30.367 1.51862 33.0103 2.9022C28.7693 7.44392 24.4351 11.8929 20.0105 16.2462C18.6911 14.4918 17.2491 13.084 14.1352 13.3819C11.092 13.673 8.79897 16.4789 8.77364 19.564C8.73231 24.6276 14.389 27.5133 18.5418 24.691C19.6328 23.9497 20.634 22.6938 21.6263 21.6752C24.5851 18.6375 27.5674 15.5291 30.5128 12.4769C32.9441 14.7244 35.2705 17.2859 37.7102 19.7903C37.9652 20.0521 38.7345 20.6643 38.7385 20.7701C38.7478 20.9996 37.1516 22.4753 36.9756 22.6551C35.1825 24.4957 33.3631 26.3779 31.5407 28.0835C30.2764 25.3547 25.9569 24.3867 23.1684 26.1234C21.4646 27.1844 20.3749 28.8878 20.3038 31.2499C20.2056 34.5001 22.4613 37.3261 25.5921 37.6578C29.9324 38.118 31.6958 34.9348 33.8177 32.7575C37.3915 29.089 41.1031 25.2648 44.6142 21.8262C44.7511 29.3038 42.2221 34.6967 38.6647 38.4875C35.102 42.2838 30.3639 45.3211 23.6821 45.8H21.1117C14.88 45.2385 10.0784 42.6926 6.64323 39.1659C3.20853 35.6396 0.72483 30.7134 0.18045 24.3137V21.6747C0.541296 15.5077 3.37207 10.2238 6.717 6.82257C10.2601 3.21924 14.9911 0.684733 21.1122 0.187958Z" fill="#DAA5DE"/>
</svg>
